/* XPM */
static char *_df9ab1a721e4385ec1779d868ab4e10jWnT7tw1ercckzGu[] = {
/* columns rows colors chars-per-pixel */
"64 64 122 2 ",
"   c None",
".  c #000000",
"X  c #0B0402",
"o  c #0C0A05",
"O  c #140000",
"+  c #1D0000",
"@  c #140C06",
"#  c #1E0C04",
"$  c #131005",
"%  c #141008",
"&  c #1A160C",
"*  c #211C00",
"=  c #322C0B",
"-  c #272417",
";  c #292618",
":  c #2C291A",
">  c #372615",
",  c #322F1E",
"<  c #3E2D1B",
"1  c #33301F",
"2  c #353121",
"3  c #3A3624",
"4  c #3E3926",
"5  c #3F3B28",
"6  c #470000",
"7  c #4D0400",
"8  c #501000",
"9  c #463F14",
"0  c #433421",
"q  c #413A27",
"w  c #493C27",
"e  c #413C29",
"r  c #4C3E28",
"t  c #5E3720",
"y  c #5F3922",
"u  c #613C24",
"i  c #46422C",
"p  c #4A452C",
"a  c #53462F",
"s  c #54482F",
"d  c #4C4730",
"f  c #4E4932",
"g  c #524C34",
"h  c #594C33",
"j  c #555037",
"k  c #575138",
"l  c #595339",
"z  c #644027",
"x  c #644028",
"c  c #373941",
"v  c #00296C",
"b  c #3F4043",
"n  c #194271",
"m  c #2C466B",
"M  c #3A4F70",
"N  c #3D5170",
"B  c #454545",
"V  c #474748",
"C  c #484848",
"Z  c #514F46",
"A  c #55534C",
"S  c #5A5B60",
"D  c #495D7F",
"F  c #A79C6B",
"G  c #AEA163",
"H  c #AEA26A",
"J  c #B3A667",
"K  c #B1A56D",
"L  c #B7A96B",
"P  c #B9AB6D",
"I  c #B2A674",
"U  c #B7AB76",
"Y  c #B9AC74",
"T  c #B2A77A",
"R  c #B6AB79",
"E  c #BAAF7B",
"W  c #BCB07D",
"Q  c #3E5780",
"!  c #415A83",
"~  c #4F6182",
"^  c #526382",
"/  c #5C6E8F",
"(  c #61708E",
")  c #D2C68E",
"_  c #D5C98F",
"`  c #D7CA91",
"'  c #D9CD93",
"]  c #DBCF9A",
"[  c #DED196",
"{  c #DDD19D",
"}  c #DCD09C",
"|  c #E0D297",
" . c #E0D397",
".. c #E0D397",
"X. c #E0D398",
"o. c #E1D398",
"O. c #E1D498",
"+. c #E1D498",
"@. c #E5DAA9",
"#. c #F3F3F2",
"$. c #F2F2F3",
"%. c #F5F4F3",
"&. c #F6F5F3",
"*. c #F3F3F4",
"=. c #F5F5F4",
"-. c gray96",
";. c #F7F6F4",
":. c #F6F6F5",
">. c gray97",
",. c #F8F7F6",
"<. c #F9F8F4",
"1. c #FBFAF6",
"2. c #FDFBF7",
"3. c #F9FAFB",
"4. c gray98",
"5. c #FBFBFA",
"6. c #FAFAFB",
"7. c #FDFDFB",
"8. c #FAFAFC",
"9. c #FBFBFC",
"0. c #FDFDFC",
"q. c #FEFEFC",
/* pixels */
"                                                                                                                                ",
"                                                                                                                                ",
"                                                                                                                                ",
"                                                                                                                                ",
"                                                                                                                                ",
"                                                                                                                                ",
"                                                                                                                                ",
"                                                                                                                                ",
"                                                                                                                                ",
"                                                                                                                                ",
"                                                                                                                                ",
"                                                                                                                                ",
"                                                                                                                                ",
"                                                                                                                                ",
"                                                                                                                                ",
"                                                                                                                                ",
"                                                                                                                                ",
"                                                                                                                                ",
"                                                                                                                                ",
"                                                                                                                                ",
"                                                                                                                                ",
"                                                                                                                                ",
"                                                                                                                                ",
"                                                                                                                                ",
"                                                                                                                                ",
"                                                                                                                                ",
"                                                                    . . . . . . . . . . . .                                     ",
"                                                                    5 4 % @ 4 4 % % 3 5 5 5                                     ",
"                                                                . 3 _ ) > > ) ) > > ` ' ' ) 2 .                                 ",
"                                                                . 4 ' [ h h [ ' h h ) ' [ ' k 2                                 ",
"                                                            . @ O w ` [ ` ' [ [ ' ) h h ' [ ' ) 2 .                             ",
"                                                            . o + r ` X.[ [ [ ' +.' < < ` [ X.' k 2                             ",
"                                                        . . . o . 0 ` ..' ' ..[ | ` 0 0 ` | ' [ ' ) q .                         ",
"                                                        4 4 % & 0 l ` ....[ X.' | ` s h ) ' [ [ ..' q .                         ",
"                                                    . 4 _ _ - - _ ' ....[ ..X...| [ ' ) a s ` | [ ` q .                         ",
"                                                    . 3 _ _ f g ' ..' ..[ ..' ' [ ' ..' s a ' | [ ` 4 .                         ",
"                                                        2 g ) ' ..' X.' ..' P J L P [ | ` ' ..' P G , .                         ",
"                                                        . 2 ' [ ' [ ....' ' E R F F ` ' ..O.' ' W I 1 .                         ",
"                                                    . . . 3 ' [ X...' [ L E <.,.^ D K P ' ..L E 1.#.B .                         ",
"                                                    5 e 2 j ` ' X.' ..' J R 7.6.! n F K ' ' H T 7.6.C .                         ",
"                                                . 2 ) ' ' ) f g ` X...' J R 0.8.! v n M K K m D 6.6.V .                         ",
"                                                2 k ' [ [ ' , : ` X...' P E %.$.( N ! ~ H H D / >.>.V .                         ",
"                                            . 2 _ ' [ ' [ ' : : ' O...' [ ` Z S *.0.8.>.U U %.>.@.] e .                         ",
"                                            2 k ' [ [ [ [ ' g f _ ' ' ..X.` 9 Z $.6.8.>.I I 1.7.' ) 5 .                         ",
"                                        . 5 ) ' ' [ [ [ [ [ ' ) p d ` X.[ ] ' _ A c B c % p ] { l 2                             ",
"                                        . e ' +.[ [ [ [ ' ' [ ' d d ) ` ' ..o.' p * = = : f ) ) , .                             ",
"                                        . 2 ` [ [ [ [ ' f g ' [ ` _ g g ' O.X.X.' ' ' ' ' _ k 3                                 ",
"                                        2 k ` X.[ [ [ _ : : ' [ X.` : - _ ` ` ` ' ' ' ' ' _ 2 .                                 ",
"                                    . 4 ) ' ' [ [ [ [ ` 2 3 ` [ [ ` e . 2 2 2 2 3 3 , 1 , , . .                                 ",
"                                    . e ' +.[ [ [ [ [ ` 3 2 ' [ ..` 5 . 2 , , , . . , 2 2 2 4 4                                 ",
"                                    . 4 ` [ [ [ [ [ +.' ; : ' +.[ ' : - ) ' ' ` 3 2 ) ' ` ` ' ) 5 .                             ",
"                                    . 4 ' [ [ [ [ [ [ ` f f ) ' [ ` g f ` ' ' _ 2 2 ) [ [ [ +.' e .                             ",
"                            . .     . e ' ......[ [ +.[ ' ` f g ` ..` ) g 1 5 3     , k ' X.[ ` 2 .                             ",
"                            4 4     . 4 _ ' ` ` ' ` ` ` ' _ ; : ` X.X.` 3 . . .     . 2 ) ' [ ' k 2                             ",
"                        . 1 _ _ 2 . . . t u t t x u x u u t . e ' X...` 3 .             2 k ` ..' ) 5 .                         ",
"                        2 h ` ) h , e q t t u t 7 7 7 7 t t . 3 ) ` ..' k 2             . 2 ` [ X.' 5 .                         ",
"                    . , ) ` d f ` ' ` ' ' ` ' _ x 8 8 x _ _ 3 . 2 k ` ..` _ 4 .         . e ` X.[ ' 5 .                         ",
"                    2 k ' ] : ; ) ' [ [ [ [ O.' x 7 7 u ' ' 3 . . 2 ` [ X.' e .         . e ' [ X.` 4 .                         ",
"                . 5 ) ' [ ` 2 . 1 j ' [ [ ' [ ` x 7 7 u ' ' 4 . . e ` ..[ ` 2 . . .     . 2 ` [ [ ` 4 .                         ",
"                . 5 ' [ [ ` j 2 . 2 ' [ [ [ [ ' x 7 7 u _ _ 3 . . 4 ` ..[ ' h , e 3     , j ' [ [ ' 4 .                         ",
"                . q ' X...[ ' _ 2 3 ' [ ......` x 6 # @ 4 4 o o . 4 ' +.[ [ ' ' ' _ 2 2 ` ' ..[ +.' 5 .                         ",
"                . 3 ) ' ` ` ' _ 2 : ) ' ` ` ' ) z 6 @ . . . . o . 3 ) ' ` ' ' ' ' ) 2 2 ) ' ` ` ' ) 4 .                         ",
"                . o 4 4 4 5 3 3 X o 4 4 q 4 q 4 @ X X .         . o 4 4 4 4 4 4 4 4 X X 3 4 4 4 4 4 o .                         ",
"                . . . . . . . . . . . . . . . . . . . .         . . . . . . . . . . . . . . . . . . . .                         "
};
