/* XPM */
static char *_bf2379144a246009a2c2f164521cea9LNEcNpUaLvqkVfrA[] = {
/* columns rows colors chars-per-pixel */
"64 64 96 2 ",
"   c None",
".  c #000000",
"X  c #0B0402",
"o  c #0C0A05",
"O  c #140000",
"+  c #1D0000",
"@  c #140C06",
"#  c #1E0C04",
"$  c #141006",
"%  c #1A160C",
"&  c #211C00",
"*  c #322C0B",
"=  c #272417",
"-  c #292618",
";  c #2C291A",
":  c #372615",
">  c #322E1E",
",  c #3E2D1B",
"<  c #33301F",
"1  c #353121",
"2  c #3A3624",
"3  c #3E3926",
"4  c #3F3B28",
"5  c #470000",
"6  c #4D0400",
"7  c #501000",
"8  c #463F14",
"9  c #5D371F",
"0  c #433421",
"q  c #413A27",
"w  c #493C27",
"e  c #413C29",
"r  c #4C3E28",
"t  c #5E3720",
"y  c #5F3922",
"u  c #613C24",
"i  c #46412C",
"p  c #4A452C",
"a  c #53462F",
"s  c #4C4730",
"d  c #4E4932",
"f  c #544730",
"g  c #524C34",
"h  c #594C33",
"j  c #555037",
"k  c #575138",
"l  c #595339",
"z  c #644027",
"x  c #654128",
"c  c #373941",
"v  c #00296B",
"b  c #3F4043",
"n  c #194271",
"m  c #2C466B",
"M  c #3A4F70",
"N  c #3D5170",
"B  c #454545",
"V  c #474748",
"C  c #484848",
"Z  c #514F46",
"A  c #55534C",
"S  c #5A5B60",
"D  c #495D7F",
"F  c #A79C6B",
"G  c #AEA163",
"H  c #AEA26A",
"J  c #B3A667",
"K  c #B1A56D",
"L  c #B7A96B",
"P  c #B9AB6D",
"I  c #B2A674",
"U  c #B9AC74",
"Y  c #B2A77A",
"T  c #B6AB79",
"R  c #BAAF7B",
"E  c #BBB07D",
"W  c #3E5780",
"Q  c #415A83",
"!  c #4F6182",
"~  c #526382",
"^  c #5D6E8F",
"/  c #61708E",
"(  c #D2C68E",
")  c #D5C98F",
"_  c #D7CA91",
"`  c #D9CD93",
"'  c #DBCF9A",
"]  c #DED196",
"[  c #DDD19D",
"{  c #E0D297",
"}  c #E1D498",
"|  c #E5DAA9",
" . c #F5F5F4",
".. c #F8F7F6",
"X. c #FBF9F5",
"o. c #FBFBFB",
/* pixels */
"                                                                                                                                ",
"                                                                                                                                ",
"                                                                                                                                ",
"                                                                                                                                ",
"                                                                                                                                ",
"                                                                                                                                ",
"                                                                                                                                ",
"                                                                                                                                ",
"                                                                                                                                ",
"                                                                                                                                ",
"                                                                                                                                ",
"                                                                                                                                ",
"                                                                                                                                ",
"                                                                                                                                ",
"                                                                                                                                ",
"                                                                                                                                ",
"                                                                                                                                ",
"                                                                                                                                ",
"                                                                                                                                ",
"                                                                                                                                ",
"                                                                                                                                ",
"                                                                                                                                ",
"                                                                                                                                ",
"                                                                                                                                ",
"                                                                                                                                ",
"                                                                                                                                ",
"                                    . . . . . . . . . . . .                                                                     ",
"                                    3 4 4 2 $ $ 3 4 $ $ 3 3                                                                     ",
"                                . 1 ( ` ` _ , : ( ( : : ) ) 2 .                                                                 ",
"                                1 k ` } ` ( h h ] ` h h ' ` q .                                                                 ",
"                            . 1 ( ` ] ` h h ( ` ] ] ) _ { _ w O @ .                                                             ",
"                            1 k ` ] ] _ , , ` ] ' ] { ] { ) r + o .                                                             ",
"                        . 3 ( ` ` { } ` , 0 _ { ] ] ] ` ' ` 0 . o . . .                                                         ",
"                        . e ` { { { ` ( f h _ { ] ] ] ] } ` l 8 % @ 2 2                                                         ",
"                        . 3 _ { { _ f a ( ` { { ] ] ] ] ' ] ` ( - = _ _ 2 .                                                     ",
"                        . 3 ) ] { _ a f ` { ] ` ] ` ' ] ] ] { ` g d _ ( 3 .                                                     ",
"                        . > G P ] { _ ` { ] P L J L ` { ] ] ] ` _ ( j >                                                         ",
"                        . > I E ` ` ] { ` _ K F U R ` ` ] ] ] ] } ` 2 .                                                         ",
"                        . B  ...E L ] ` U K N ~  .X.R L ] ] ] ] } ` 2 . . .                                                     ",
"                        . V o.o.I G ` ` K F n Q o.o.U J ` ] ] ] _ ( k 1 e 3                                                     ",
"                        . V o.o.D m K K N n v W o.o.T J ` ] { ` g d ( ` ` ( 1 .                                                 ",
"                        . V  .../ D H H ! Q W /  . .R L ] ] { ) ; ; ` } } ` k 1                                                 ",
"                        . e [ | .. .U U  .o.o. .S Z _ ] ] ] ] ` ; ; ` ] ] ` ` ( 1 .                                             ",
"                        . 4 ( ' o.X.I I  .o.o. .Z 8 _ ] ' ] ` ( g d ` ] ] ] } ` k 1                                             ",
"                            1 k [ ] i $ c B c A ( ` ] ' ] ` s p ( ` ] ] ] ] ] ] ` ( 4 .                                         ",
"                            . > ( ( d ; * * & p ` ] ] ] ` ( p s ` } ` ` ] ] ] ` } ` e .                                         ",
"                                1 k ) ` ` ` ' ` ] ] } ` g d ( ` ] ` d d _ ] ] ] ] ` 1 .                                         ",
"                                . 2 ) ` ` ` ` ` ` ` ` ( = ; ` } ] ` ; ; _ ] ] ] ] ` k 1                                         ",
"                                . . > > > 1 2 3 1 1 1 1 . e _ ] ] ` 1 2 ` { { ` ] ] ` ( 3 .                                     ",
"                                3 3 1 < > > . . > > > < . e _ ] ] ` 2 1 _ { ` { ] ] } ` e .                                     ",
"                            . 3 ( ` _ _ ` ) < 2 ) ` ' ) - ; ` ] ] ` ; - _ } ' { ] ` } _ 3 .                                     ",
"                            . e ` { ] ] ' ( 2 < ) ` ` ( d g _ { ` ( f g _ { ] ' ] ] ] _ 3 .                                     ",
"                            . 2 _ } { ` k >     2 q < g ( ` ] _ d d ( ] } ] ] } ] ] } ` 4 .     . .                             ",
"                            1 j _ { ` ( 1 .     . . . 2 ` } ] _ ; - ) ` ` ` _ _ _ ` ` ( q .     2 4                             ",
"                        . 3 ( ` { _ k 1             . 2 _ ] } ` e . 9 9 u u x u u t y t . . . > _ ( > .                         ",
"                        . e ` { ] _ 1 .             1 k _ ] ` ( 2 . y t 6 6 6 6 9 y y y q e < g ( _ k 1                         ",
"                        . 3 ` ] ] ` e .         . 3 ( ` { _ k 1 . 2 ( ) u 7 7 x ) ` _ _ _ _ ' ) d d ( _ > .                     ",
"                        . 3 ` ] ] ` e .         . e ` { ] _ 1 . . 3 ` ` u 6 6 x ` { { { { { ` ) ; ; ` ` k 1                     ",
"                        . 3 _ ] ] _ 1 .     . . . 1 _ ] { ` e . . 3 ` ` u 6 6 x ) { ] ] ] _ j < . 1 _ ] ` ( 3 .                 ",
"                        . 3 ` { ] ` j >     2 e > j _ ] ] _ 3 . . 2 ( _ u 7 6 x ` ] ` ] { _ < . > k _ ] } _ 4 .                 ",
"                        . 4 ` } ] ] ' ( 1 1 _ ` ` ` ] ] } ` 3 . o o 3 q @ # 5 x ` { ] ] ] ` 1 1 ( ' { ] } ` 3 .                 ",
"                        . 3 ( ` _ _ ` ) < 1 ( ` ` ` ` _ _ ( 3 . o . . . . @ 5 u ( ` _ _ ` ( < 1 ( ` _ _ ` ( 3 .                 ",
"                        . o 2 3 3 4 4 2 X X 2 3 2 3 3 3 3 3 o .         . . O @ 3 3 3 4 4 2 X o 2 3 3 3 4 2 o .                 ",
"                        . . . . . . . . . . . . . . . . . . . .         . . . . . . . . . . . . . . . . . . . .                 "
};
