/* XPM */
static char *_23f50376b434efe995970ba8b2f8a0d5Irtum7HgmKna3S5[] = {
/* columns rows colors chars-per-pixel */
"64 64 223 2 ",
"   c None",
".  c #00000E",
"X  c #180200",
"o  c #1B0B00",
"O  c #1C1100",
"+  c #000015",
"@  c #00001A",
"#  c #240100",
"$  c #2B0000",
"%  c #231600",
"&  c #341B00",
"*  c #192217",
"=  c #382606",
"-  c #3B2D00",
";  c #3D3000",
":  c #000429",
">  c #001625",
",  c #000131",
"<  c #15212F",
"1  c #18212F",
"2  c #00253B",
"3  c #1D2834",
"4  c #302F2D",
"5  c #252A34",
"6  c #3A3938",
"7  c #5A001A",
"8  c #660012",
"9  c #780A1C",
"0  c #4C3B00",
"q  c #513900",
"w  c #473211",
"e  c #7C271C",
"r  c #760021",
"t  c #7A1821",
"y  c #463C25",
"u  c #675200",
"i  c #624B1C",
"p  c #695115",
"a  c #715A1E",
"s  c #464233",
"d  c #594F39",
"f  c #745A25",
"g  c #715C2F",
"h  c #6E5830",
"j  c #7A6429",
"k  c #756132",
"l  c #1F364C",
"z  c #323B45",
"x  c #3C4547",
"c  c #3C444A",
"v  c #464849",
"b  c #5A5547",
"n  c #515456",
"m  c #6A5F4D",
"M  c #796C4A",
"N  c #6F6B5D",
"B  c #7D6F52",
"V  c #5A5C62",
"C  c #6E6D69",
"Z  c #78736D",
"A  c #7D7C7A",
"S  c #812A1E",
"D  c #873B1B",
"F  c #9E1928",
"G  c #A70B2E",
"H  c #9A2924",
"J  c #9A3924",
"K  c #A22C26",
"L  c #A22529",
"P  c #A33325",
"I  c #A53925",
"U  c #C8002F",
"Y  c #C50032",
"T  c #C90135",
"R  c #C80739",
"E  c #CB1935",
"W  c #CA282E",
"Q  c #CC362D",
"!  c #C82A33",
"~  c #CB3435",
"^  c #8A4718",
"/  c #925714",
"(  c #9B5A14",
")  c #A75A1D",
"_  c #836202",
"`  c #866508",
"'  c #946808",
"]  c #967100",
"[  c #9C7401",
"{  c #9E7901",
"}  c #876611",
"|  c #9C6013",
" . c #A27603",
".. c #A27803",
"X. c #A97B0A",
"o. c #AD790B",
"O. c #B17D07",
"+. c #B07C0A",
"@. c #A26C11",
"#. c #A87B16",
"$. c #AA4D20",
"%. c #836621",
"&. c #836828",
"*. c #93722D",
"=. c #B0772E",
"-. c #CF4C2F",
";. c #D25A2B",
":. c #CE4734",
">. c #D14838",
",. c #CA5F32",
"<. c #D1543A",
"1. c #D6662C",
"2. c #D97427",
"3. c #D87735",
"4. c #CF355F",
"5. c #CF3760",
"6. c #8B7242",
"7. c #D45948",
"8. c #C94D54",
"9. c #D14D59",
"0. c #D4575B",
"q. c #D65B59",
"w. c #D86655",
"e. c #D77052",
"r. c #AF8204",
"t. c #AF8008",
"y. c #B28403",
"u. c #B48901",
"i. c #BA890D",
"p. c #B48917",
"a. c #B88B19",
"s. c #AB8A2F",
"d. c #C49203",
"f. c #CA9602",
"g. c #CD9901",
"h. c #C4930B",
"j. c #D29D03",
"k. c #C28511",
"l. c #D9841D",
"z. c #CC9B15",
"x. c #C89819",
"c. c #DE9316",
"v. c #E59519",
"b. c #D5A103",
"n. c #DCA70A",
"m. c #D9A617",
"M. c #D9A619",
"N. c #E4AC01",
"B. c #E4A906",
"V. c #EAAF01",
"C. c #E3A50B",
"Z. c #E6B100",
"A. c #ECB201",
"S. c #EFB20B",
"D. c #F1B602",
"F. c #F8B406",
"G. c #FDBC02",
"H. c #FAB60A",
"J. c #FCBD0B",
"K. c #EDAA17",
"L. c #E8B219",
"P. c #F7B916",
"I. c #F9BD1A",
"U. c #C49724",
"Y. c #D1962C",
"T. c #DC833E",
"R. c #DE893C",
"E. c #E48A23",
"W. c #E69724",
"Q. c #E8953B",
"!. c #D3A328",
"~. c #DFB128",
"^. c #EBB22F",
"/. c #EDAA38",
"(. c #F3B736",
"). c #FFC201",
"_. c #FFC606",
"`. c #FFD30C",
"'. c #FCC215",
"]. c #FCCA17",
"[. c #FDC72E",
"{. c #FECD2E",
"}. c #FFD22F",
"|. c #F4C335",
" X c #FAC635",
".X c #FDCB33",
"XX c #F7C43A",
"oX c #F7C83B",
"OX c #FACA3A",
"+X c #FFD133",
"@X c #80807C",
"#X c #DD8A49",
"$X c #C8A248",
"%X c #E2BC4F",
"&X c #EEC142",
"*X c #EEC34C",
"=X c #FCCE43",
"-X c #858586",
";X c #8C8B8B",
":X c #908E8C",
">X c #92918F",
",X c #8F8F90",
"<X c #939393",
"1X c #9D9D9C",
"2X c #A19F99",
"3X c #A19FA0",
"4X c #9FA0A0",
"5X c #A3A3A3",
"6X c #A9A9A7",
"7X c #ACABAB",
"8X c #B8B7B7",
"9X c #C7C6C5",
"0X c #CECDCC",
"qX c #D0CFCD",
"wX c #D7D7D5",
"eX c #E0E0DE",
"rX c #E2E2E1",
"tX c #ECECEB",
"yX c #F5F5F5",
"uX c #F8F7F7",
"iX c #F7F8F7",
"pX c #F9F8F7",
"aX c #FFFFFF",
/* pixels */
"                                                                                                                                ",
"                                                                                                                                ",
"                                                                                                                                ",
"                                                                                                                                ",
"                                                                                                                                ",
"                                                                                                                                ",
"                                                                                                                                ",
"aXaXaXaXaXaXaXaXaXaXaXaXaXaXaXaXaXaXaXaXaXaXaXaXaXaXaXaXaXaXaXaXaXaXaXaXaXaXaXaXaXaXaXaXaXaXaXaXaXaXaXaXaXaXaXaXaXaXaXaXaXaXaXaX",
"aXaXaXaXaXaXaXaXaXaXaXaXaXaXaXaXaXaXaXaXaXaXaXaXaXaXaXaXaXaXaXaXaXaXaXaXaXaXaXaXaXaXaXaXaXaXaXaXaXaXaXaXaXaXaXaXaXaXaXaXaXaXaXaX",
"aXaXaXaXaXaXaXaXaXaXaXaXaXaXaXaXaXaXaXaXaXaXaXaXaXaXaXaXaXaXaXaXaXaXaXaXaXaXaXaXaXaXaXaXaXaXaXaXaXaXaXaXaXaXaXaXaXaXaXaXaXaXaXaX",
"aXaXaXaXaXaXaXaXaXaXaXaXaXaXaXaXaXaXaXaXaXaXaXaXaXaXaXaXaXaXaXaXaXaXaXaXaXaXaXaXaXaXaXaXaXaXaXaXaXaXaXaXaXaXaXaXaXaXaXaXaXaXaXaX",
"aXaXaXaXaXaXaXaXaXaXaXaXaXaXaXaXaXaXaXaXaXaXaXaXaXaXaXaXaXaXaXaXaXaXaXaXaXaXaXaXaXaXaXaXaXaXaXaXaXaXaXaXaXaXaXaXaXaXaXaXaXaXaXaX",
"aXaXaXaXaXaXaXaXaXaXaXaXaXaXaXaXaXaXaXaXaXaXaXaXaXpXaXaXaXpXaXaXaXpXaXpXaXaXpXaXaXaXaXaXaXaXaXaXaXaXaXaXaXaXaXaXaXaXaXaXaXaXaXaX",
"aXaXaXaXaXaXaXaXaXaXaXaXaXaXaXaXaXaXaXaXaXaXaXaXaXaXaXaXaXaXaXaXaXaXaXaXaXaXaXaXaXaXaXaXaXaXaXaXaXaXaXaXaXaXaXaXaXaXaXaXaXaXaXaX",
"aXaXaXaXaXaXaXaXaXaXaXaXaXaXaXaXaXaXaXaXaXaXaXpX8X6X7X7X7X7X7X7X7X7X7X7X7X7X6X8XpXaXaXaXaXaXaXaXaXaXaXaXaXaXaXaXaXaXaXaXaXaXaXaX",
"aXaXaXaXaXaXaXaXaXaXaXaXaXaXaXaXaXaXaXaXaXaXaXpX+                             + aXaXaXaXaXaXaXaXaXaXaXaXaXaXaXaXaXaXaXaXaXaXaXaX",
"aXaXaXaXaXaXaXaXaXaXaXaXaXaXaXpXaXiXqX0X0XqXqX9X6.` &.%.%.%.%.%.%.%.%.%.%.&._ 6.9XqX0X0X0XqXpXaXaXaXaXaXaXaXaXaXaXaXaXaXaXaXaXaX",
"aXaXaXaXaXaXaXaXaXaXaXaXaXaXaXaXaXpX+           f.b.j.b.b.b.j.j.b.j.b.j.b.b.b.g.          + pXaXaXaXaXaXaXaXaXaXaXaXaXaXaXaXaXaX",
"aXaXaXaXaXaXaXaXaXaXaXaXaXpXrXrXrXwX6.p k g g k h.f.d.d.i.i.d.d.f.d.i.k.d.d.d.i.k h g k p B wXrXrXrXyXaXaXaXaXaXaXaXaXaXaXaXaXaX",
"aXaXaXaXaXaXaXaXaXaXaXpXaXiXc   + O a.b.f.g.g.g.g.g.u.r.e e O.u.u.O.P K r.u.u.u.g.g.g.f.b.h.O +   v iXaXaXaXaXaXaXaXaXaXaXaXaXaX",
"aXaXaXaXaXaXaXaXaXaXaXaXyXtXm - = q d.j.f.f.f.h.f.d.u.O.S S +.O.o.O.J K o.O.O.t.f.f.g.f.g.d.q = X b tXyXpXaXaXaXaXaXaXaXaXaXaXaX",
"aXaXaXaXaXaXaXaXaXaXaXyXV d *X=XU.U.f.f.u.y.I I y.u.u.O.P L I P S S K K P P e D r.u.y.y.r.i.U.U.U.Y.s V yXaXaXaXaXaXaXaXaXaXaXaX",
"aXaXaXaXaXaXaXaXaXaXaXiX2 # oX.Xj.j.g.f.u.O.K K y.y.u.O.K L L F t t L L F L r e o.u.u.u.t.y.g.j.j.x.  l yXaXaXaXaXaXaXaXaXaXaXaX",
"aXaXaXaXaXaXaXaXaXiX-XZ %X^.U.h./ ^ y.i.^ D L I O.y.y.y.o.o.o.o.K H o.+.o.o.o.X.^ ^ O.t.^ D $.$. .#.^.%XZ -XyXaXaXaXaXaXaXaXaXaX",
"aXaXaXaXaXaXaXaXaXpX,   =X{.u...t t t.r.r r F P t.u.y.u.u.u.u.y.K K y.u.u.u.u.y.9 t t.t.9 r F H ' X.+X=X  , iXaXaXaXaXaXaXaXaXaX",
"aXaXaXaXaXaXaXpX7X1X$X!.OX Xh.t.J H ) ) @.[ | | X. . . . ..... .| ) [ .. . ... .' / ....' / P I ^ | |.OX!.$X2X7XpXaXaXaXaXaXaXaX",
"aXaXaXaXaXaXaXpX    G._..X Xu. .P L G F i.u.{ { [ [  .[ [ [  .[ { { [ [ [ { [ [ { { ] ] { [ K F 7 r |..X`.].    yXaXaXaXaXaXaXaX",
"aXaXaXaXaXaXaXpXn w L.G.[. X~.!.J S $.( ....] ' f f f f f f f f f f f f f f f f ' ] [ ] ] ' ) ) U.Y.XX|./.#Xy n pXaXaXaXaXaXaXaX",
"aXaXaXaXaXaXaXpXc - I._..X+X+XOXt 8 [ ..[ [ { ]                                 ] ..{ { { ..` [ =X+X+XOXw.0.X x yXaXaXaXaXaXaXaX",
"aXaXaXaXaXaXaXpXc & W.K././. X X=.=.} ` ` } _ &.:X<X:X>X,X<X,X:X<X:X<X:X<X,X<X;X&._ } ` ` } a.U.|..X/./.7.8.# v uXaXaXaXaXaXaXaX",
"aXaXaXaXaXaXaXuXx X G T U ~ .X+X+XoX*     .   l aXaXaXaXaXaXaXaXaXaXaXaXaXaXaXaXl   .     * XX+X+XXX! Y W W X v uXaXaXaXaXaXaXaX",
"aXaXaXaXaXaXaXyXx $ <.1.~ <.(.|.OX|.j i f f u M rXtXtXtXtXtXtXtXtXtXtXtXtXtXtXrXM u a a i j |.{.(.(.1.;.:.8.# x uXaXaXaXaXaXaXaX",
"aXaXaXaXaXaXaXpXz = P.H.w.0.! :. X.XoXoXOXoXoXXXs : 1 < 1 1 1 < < < < < < 3 : s XXoXoXoXOX.X_.G.:.:.H.H.q.0.# x pXaXaXaXaXaXaXaX",
"aXaXaXaXaXaXaXpXc & I.J.q.q.~ :.XX X{.{.{.{..X|.0   % o O o o o # o o o o %   0 oX.X{.{..X XJ.F.~ Q G.G.e.q.# x uXaXaXaXaXaXaXaX",
"aXaXaXaXaXaXaXpXz w |. X:.:.K.P.e.e.P.).J.P.{. X&X&X&X&X&X&X&X&X&X&X&X&X&X&X%XXX.X[.J.P.,.<.e.e.~ -.C.N.C.!.& c pXaXaXaXaXaXaXaX",
"aXaXaXaXaXaXaXpX5 & =XOXW Q G._.0.q.H.).).).+X.X+X+X+X+X+X+X.X+X}.+X+X+X+X+X.X}..X.X).G.W T 0.0.E Q C.N.A.M.# z pXaXaXaXaXaXaXaX",
"aXaXaXaXaXaXaXpX<X@X6.*.Y.c.Z.V.K.^.G.H.2.1.3.3.I.I.3.3.I.I.'.I.#X#XI.I.3.3.I.'.'.I.2.2.c.c.7.>.c.c.B.m._ k A <XpXaXaXaXaXaXaXaX",
"aXaXaXaXaXaXaXpX7X<X+   L.A.N.V.).).).H.Q T Y T G.G.W W G.).).G.0.q.G.G.Y U F.).).H.E T N.N.W ! N.Z.A.L.  : <X6XpXaXaXaXaXaXaXaX",
"aXaXaXaXaXaXaXpX6X<XA Z *.p.n.V.V.V.D.S.7.7.E.v.Q.R.:.:.Q.Q.E.E.7.7.Q.Q.W.v.A.D.A.D.l.l.B.N.l.l.N.n.#.*.Z A <X6XpXaXaXaXaXaXaXaX",
"aXaXaXaXaXaXaXpX<X;X4X1X    C.D.V.V.N.B.0.w.).G.9.4.E T 5.5.R Y U T 4.9.J.).N.N.N.N.Z.Z.N.N.A.A.D.C.    1X2X;X<XpXaXaXaXaXaXaXaX",
"aXaXaXaXaXaXaXpX0X9X1X<XC N s.i.a.a.n.B.T.T.S.A.R.T.2.2.R.T.-.:.2.2.3.R.S.D.V.N.N.N.n.n.V.n.a.a.i.s.N C <X1X9X0XaXaXaXaXaXaXaXaX",
"aXaXaXaXaXaXaXaXaXaX4X;X5X<X+   . X N.A.Z.A.A.A.N.N.N.N.N.B.Q W N.V.N.A.n.N.N.N.V.A.A.V.A.n.X     @ <X4X;X1XaXaXaXaXaXaXaXaXaXaX",
"aXaXaXaXaXaXaXaXaXpX8X7X4X<Xn v v b U.z.x.z.x.z.B.V.N.n.N.n.1.;.B.N.N.N.N.N.N.B.z.z.z.z.z.U.b v v n <X5X7X8XpXaXaXaXaXaXaXaXaXaX",
"aXaXaXaXaXaXaXaXaXaXaXpX1X,X1X<X1X<X>         % n.Z.Z.V.V.N.V.V.N.V.Z.N.Z.V.A.C.%         > <X1X<X1X<X1XaXaXaXaXaXaXaXaXaXaXaXaX",
"aXaXaXaXaXaXaXaXaXaXaXiX7X5X5X5X1X<Xv 4 6 6 5 s z.M.M.m.m.M.M.M.M.m.m.m.m.m.m.z.s 5 6 6 4 v <X3X5X6X5X7XpXaXaXaXaXaXaXaXaXaXaXaX",
"aXaXaXaXaXaXaXaXaXaXaXaXiXpXpXyX5X<X<X,X<X,X<X;Xy - w - - ; - - - ; - ; ; ; - y :X<X,X,X,X<X<X5XyXpXpXpXaXaXaXaXaXaXaXaXaXaXaXaX",
"aXaXaXaXaXaXaXaXaXaXaXaXaXaXaXaX5X<X1X1X1X1X1X<X>                             > <X1X1X1X1X1X<X5XaXaXaXaXaXaXaXaXaXaXaXaXaXaXaXaX",
"aXaXaXaXaXaXaXaXaXaXaXaXaXaXaXpXyXtXtXtXtXtX6X<X<X:X:X:X:X:X:X;X;X>X:X:X;X>X;X<X<X6XtXtXtXtXtXtXpXaXpXaXaXaXaXaXaXaXaXaXaXaXaXaX",
"aXaXaXaXaXaXaXaXaXaXaXaXaXaXaXaXaXaXaXaXaXaX4X-X<X<X<X,X<X<X<X<X,X<X<X<X<X<X<X<X-X1XaXaXaXaXaXaXaXaXaXaXaXaXaXaXaXaXaXaXaXaXaXaX",
"aXaXaXaXaXaXaXaXaXaXaXaXaXaXaXaXaXaXaXpXaXpXrXwXrXrXeXrXrXwXrXeXrXrXrXwXrXrXwXrXrXrXyXaXpXaXaXaXaXaXaXaXaXaXaXaXaXaXaXaXaXaXaXaX",
"aXaXaXaXaXaXaXaXaXaXaXaXaXaXaXaXaXaXaXaXaXaXaXaXaXaXaXaXaXaXaXaXaXaXaXaXaXaXaXaXaXaXaXaXaXaXaXaXaXaXaXaXaXaXaXaXaXaXaXaXaXaXaXaX",
"aXaXaXaXaXaXaXaXaXaXaXaXaXaXaXaXaXaXaXaXaXaXaXaXaXaXaXaXaXaXaXaXaXaXaXaXaXaXaXaXaXaXaXaXaXaXaXaXaXaXaXaXaXaXaXaXaXaXaXaXaXaXaXaX",
"aXaXaXaXaXaXaXaXaXaXaXaXaXaXaXaXaXaXaXaXaXaXaXaXaXaXaXaXaXaXaXaXaXaXaXaXaXaXaXaXaXaXaXaXaXaXaXaXaXaXaXaXaXaXaXaXaXaXaXaXaXaXaXaX",
"aXaXaXaXaXaXaXaXaXaXaXaXaXaXaXaXaXaXaXaXaXaXaXaXaXaXaXaXaXaXaXaXaXaXaXaXaXaXaXaXaXaXaXaXaXaXaXaXaXaXaXaXaXaXaXaXaXaXaXaXaXaXaXaX",
"aXaXaXaXaXaXaXaXaXaXaXaXaXaXaXaXaXaXaXaXaXaXaXaXaXaXaXaXaXaXaXaXaXaXaXaXaXaXaXaXaXaXaXaXaXaXaXaXaXaXaXaXaXaXaXaXaXaXaXaXaXaXaXaX",
"aXaXaXaXaXaXaXaXaXaXaXaXaXaXaXaXaXaXaXaXaXaXaXaXaXaXaXaXaXaXaXaXaXaXaXaXaXaXaXaXaXaXaXaXaXaXaXaXaXaXaXaXaXaXaXaXaXaXaXaXaXaXaXaX",
"aXaXaXaXaXaXaXaXaXaXaXaXaXaXaXaXaXaXaXaXaXaXaXaXaXaXaXaXaXaXaXaXaXaXaXaXaXaXaXaXaXaXaXaXaXaXaXaXaXaXaXaXaXaXaXaXaXaXaXaXaXaXaXaX",
"aXaXaXaXaXaXaXaXaXaXaXaXaXaXaXaXaXaXaXaXaXaXaXaXaXaXaXaXaXaXaXaXaXaXaXaXaXaXaXaXaXaXaXaXaXaXaXaXaXaXaXaXaXaXaXaXaXaXaXaXaXaXaXaX",
"aXaXaXaXaXaXaXaXaXaXaXaXaXaXaXaXaXaXaXaXaXaXaXaXaXaXaXaXaXaXaXaXaXaXaXaXaXaXaXaXaXaXaXaXaXaXaXaXaXaXaXaXaXaXaXaXaXaXaXaXaXaXaXaX",
"aXaXaXaXaXaXaXaXaXaXaXaXaXaXaXaXaXaXaXaXaXaXaXaXaXaXaXaXaXaXaXaXaXaXaXaXaXaXaXaXaXaXaXaXaXaXaXaXaXaXaXaXaXaXaXaXaXaXaXaXaXaXaXaX",
"aXaXaXaXaXaXaXaXaXaXaXaXaXaXaXaXaXaXaXaXaXaXaXaXaXaXaXaXaXaXaXaXaXaXaXaXaXaXaXaXaXaXaXaXaXaXaXaXaXaXaXaXaXaXaXaXaXaXaXaXaXaXaXaX",
"aXaXaXaXaXaXaXaXaXaXaXaXaXaXaXaXaXaXaXaXaXaXaXaXaXaXaXaXaXaXaXaXaXaXaXaXaXaXaXaXaXaXaXaXaXaXaXaXaXaXaXaXaXaXaXaXaXaXaXaXaXaXaXaX",
"aXaXaXaXaXaXaXaXaXaXaXaXaXaXaXaXaXaXaXaXaXaXaXaXaXaXaXaXaXaXaXaXaXaXaXaXaXaXaXaXaXaXaXaXaXaXaXaXaXaXaXaXaXaXaXaXaXaXaXaXaXaXaXaX",
"aXaXaXaXaXaXaXaXaXaXaXaXaXaXaXaXaXaXaXaXaXaXaXaXaXaXaXaXaXaXaXaXaXaXaXaXaXaXaXaXaXaXaXaXaXaXaXaXaXaXaXaXaXaXaXaXaXaXaXaXaXaXaXaX"
};
