/* XPM */
static char *b653978bb9bd4caed0f0c01516ed564bRDwqjxsYAQbu7bpc[] = {
/* columns rows colors chars-per-pixel */
"64 64 225 2 ",
"   c None",
".  c #000000",
"X  c #0A0400",
"o  c #000009",
"O  c #0A0906",
"+  c #130400",
"@  c #1B1301",
"#  c #1A1906",
"$  c #000015",
"%  c #000018",
"&  c #121110",
"*  c #33070D",
"=  c #251901",
"-  c #201E1B",
";  c #3A1A16",
":  c #3A1F00",
">  c #1A2119",
",  c #292206",
"<  c #3B2E00",
"1  c #352905",
"2  c #3D3000",
"3  c #352E16",
"4  c #392A18",
"5  c #393218",
"6  c #021A27",
"7  c #2E2C2B",
"8  c #22252D",
"9  c #3F3D3F",
"0  c #383520",
"q  c #5A001A",
"w  c #780A1C",
"e  c #78171E",
"r  c #660011",
"t  c #4B3A0C",
"y  c #443408",
"u  c #483A1A",
"i  c #4D3610",
"p  c #7C261C",
"a  c #760021",
"s  c #791821",
"d  c #463C25",
"f  c #58420D",
"g  c #56461B",
"h  c #674D0B",
"j  c #6C520A",
"k  c #69510C",
"l  c #70550A",
"z  c #745507",
"x  c #6B571B",
"c  c #725B1E",
"v  c #624B1C",
"b  c #7F620C",
"n  c #484131",
"m  c #715B27",
"M  c #78652B",
"N  c #464547",
"B  c #535352",
"V  c #51514B",
"C  c #6F6C5E",
"Z  c #6D6C66",
"A  c #7B766F",
"S  c #797877",
"D  c #812A1E",
"F  c #873B1B",
"G  c #9F1D28",
"H  c #9C0F28",
"J  c #A21529",
"K  c #AC0031",
"L  c #9A2924",
"P  c #9B3824",
"I  c #A22B26",
"U  c #A22B29",
"Y  c #A32228",
"T  c #A33325",
"R  c #A53925",
"E  c #C9002F",
"W  c #C40032",
"Q  c #C90134",
"!  c #C90739",
"~  c #CB1835",
"^  c #C9292D",
"/  c #CC362D",
"(  c #C82A33",
")  c #CB3636",
"_  c #D0332C",
"`  c #8A4618",
"'  c #9D5D12",
"]  c #9A5716",
"[  c #925714",
"{  c #A9581E",
"}  c #83630C",
"|  c #866504",
" . c #946807",
".. c #9C7402",
"X. c #9D7900",
"o. c #977204",
"O. c #856511",
"+. c #9D6013",
"@. c #A27602",
"#. c #A27902",
"$. c #AD7A0A",
"%. c #AA7C09",
"&. c #B07B0A",
"*. c #B17C08",
"=. c #A87B16",
"-. c #A26C11",
";. c #A84820",
":. c #987930",
">. c #8F6D29",
",. c #B0772E",
"<. c #CF4C2F",
"1. c #D25A2B",
"2. c #CF4833",
"3. c #CE4535",
"4. c #D14838",
"5. c #D1543A",
"6. c #CB5D2C",
"7. c #D6662C",
"8. c #D97427",
"9. c #D87735",
"0. c #CF355F",
"q. c #D03660",
"w. c #D45746",
"e. c #C94D57",
"r. c #D24C59",
"t. c #CC585A",
"y. c #D4565B",
"u. c #D75B57",
"i. c #D86655",
"p. c #DB7752",
"a. c #DB6F4D",
"s. c #AF8104",
"d. c #B28403",
"f. c #B48901",
"g. c #BB880C",
"h. c #B78B1A",
"j. c #BE9112",
"k. c #AA8217",
"l. c #AB892F",
"z. c #C39203",
"x. c #CA9503",
"c. c #CD9903",
"v. c #C5950A",
"b. c #CC9A0A",
"n. c #CA9708",
"m. c #D39E04",
"M. c #D29C0C",
"N. c #C28411",
"B. c #DA841D",
"V. c #CB9B15",
"C. c #C39513",
"Z. c #DC9717",
"A. c #E4961A",
"S. c #D5A104",
"D. c #DEA60B",
"F. c #DEAA0A",
"G. c #DBA706",
"H. c #DAA617",
"J. c #D7A419",
"K. c #E4AC01",
"L. c #EAAF01",
"P. c #E3A50A",
"I. c #E3A905",
"U. c #E6B100",
"Y. c #ECB201",
"T. c #EEB20A",
"R. c #F1B602",
"E. c #FAB505",
"W. c #FDBC02",
"Q. c #FAB60B",
"!. c #FCBD0C",
"~. c #F3B70C",
"^. c #E3A715",
"/. c #FBBE13",
"(. c #FABD1A",
"). c #F6B614",
"_. c #EEAC16",
"`. c #C39824",
"'. c #DD833E",
"]. c #DE893C",
"[. c #D29333",
"{. c #E48923",
"}. c #E8943B",
"|. c #E69023",
" X c #D4A429",
".X c #DFB128",
"XX c #F3AB25",
"oX c #EDAA38",
"OX c #EDBE37",
"+X c #E3BA3B",
"@X c #EDBF38",
"#X c #F3B736",
"$X c #FFC201",
"%X c #FFC606",
"&X c #FDC216",
"*X c #FCCB1B",
"=X c #FFD310",
"-X c #FECC2E",
";X c #FDC72E",
":X c #EEC13C",
">X c #EFC037",
",X c #F3C334",
"<X c #FAC634",
"1X c #FDCC33",
"2X c #F7C539",
"3X c #F7C83A",
"4X c #FBCA3B",
"5X c #FBC739",
"6X c #FFD134",
"7X c #FFD22F",
"8X c #DD8448",
"9X c #EEC242",
"0X c #F0C142",
"qX c #8B8A88",
"wX c #878786",
"eX c #959595",
"rX c #979898",
"tX c #9A9A9A",
"yX c #989798",
"uX c #8F8F90",
"iX c #A09F9F",
"pX c #A0A09F",
"aX c #A4A5A5",
"sX c #A9A9A9",
"dX c #D1CFCC",
/* pixels */
"                                                                                                                                ",
"                                                                                                                                ",
"                                                                                                                                ",
"                                                                                                                                ",
"                                                                                                                                ",
"                                                                                                                                ",
"                                                                                                                                ",
"                                                                                                                                ",
"                                                                                                                                ",
"                                                                                                                                ",
"                                                                                                                                ",
"                                                                                                                                ",
"                                                                                                                                ",
"                                                                                                                                ",
"                                                @ @ @ @ @ @ @ @ @ @ @ @ @ @ @ @                                                 ",
"                                                . . . . . . . . . . . . . . . .                                                 ",
"                                                O.} b } b b O.} O.} z } } } } O.                                                ",
"                                    . . . . . O b.S.S.S.S.S.m.m.S.S.G.S.S.S.G.b.O . . . . .                                     ",
"                                    k k k j h l z.c.z.z.g.g.z.z.z.z.N.N.f.x.z.g.l h k k k k                                     ",
"                            . . . , C.c.b.b.b.b.c.x.f.s.p p $.f.d.d.T I d.f.d.f.b.b.c.b.b.C., . . .                             ",
"                            g g 1 f v.m.x.x.x.x.x.x.f.*.D D $.&.%.%.T I $.*.%.%.n.x.x.c.c.v.i 1 t 2                             ",
"                        . u 0X2XC.z.x.x.f.s.R T d.d.d.d.T U T T D D I U T T D F s.d.s.f.d.f.n.v.n.j.1 .                         ",
"                        . d 2X1XM.m.c.x.f.*.T I s.d.d.*.U Y J L s s I Y J G w p s.f.s.f.d.f.c.M.m.C.3 o                         ",
"                    . 4 +XOX`.C.[ ` g.d.` F U T d.d.d.s.&.&.&.&.I L $.&.$.$.$.=.` ` s.s.` F ;.{ @.=.+X+X3 .                     ",
"                    . > 4X7Xf.@.e e s.s.w a G T *.f.d.d.f.f.f.d.I T f.f.f.d.f.d.w e *.d.w a H L  .=.6X4X- .                     ",
"                . t C.J.<X<XC.d.P L { { -.-.' +.@.#.#.#.#.#.@.@.' { ..#.@.@.@.@. .[ #.#. .[ R R ` +.,X1X X`.u .                 ",
"                . t /.%X1X<Xf.@.R J H H g.f.X.X.........X.@...X.X.#.X.X.@.....X.......o.X...U J q w ,X1X=X-Xu .                 ",
"                . t ~.!.;X<X.X XP L ] { #.#.o. .z j z z j z j z j j j z j l l l o.o.o...o. .] { l.[.4X1X}.[.i .                 ",
"                . t !.$X7X6X1X5Xs r o.X.....#.o.& o . . . . . . . . . . . . . O o.#.X.#.X.X. ...6X1X7X5Xi.r.; .                 ",
"                . t A.XXoXoX<X<X,.,.O.| } } } b + . + X X X X X X X X X X + . , } } } } } O.h.`.1X1X#XoXi.r.; .                 ",
"                . * K Q E / <X6X6X3X> . . . . o                                 . . . . . > 3X6X6X3X( W _ U * .                 ",
"                . ; 1.7.) 5.#X,X1X,XM x c c l M dX                              x c c c v M ,X-X#X#X7.<.4.) ; .                 ",
"                . t ~.Q.u.y.( 3.<X1X3X4X4X3X1X0XZ N . . . . . . . . . . . . $ 5 2X4X3X3X4X<X%XE.3.4.Q.E.i.t.; o                 ",
"                . t /.!.i.y._ <.2X1X1X-X1X-X6X,X1 . 5 3 3 3 3 3 5 3 5 3 3 5 # g 3X1X-X-X<X<X/.E./ / W.W.a.t.; o                 ",
"                o u <X1X3.4.).).a.p.).$X!./.-X<X0X9XOXOXOX:XOX:XOX>XOXOXOXOX:X:X1X;X&XQ.6.5.a.p.) <.P.K.^.Z.i o                 ",
"                . y 0X4X( _ W.!.r.y.Q.$XW.$X1X1X1X4X6X6X6X6X6X1X6X6X6X1X6X6X6X6X1X-X$XW.( Q y.y.! ) P.U.Y.F.1 .                 ",
"                wXqX>.>. XA.L.L.XXXX!.W.8.8.9.9./.(.9.9.(.&X&X(.8X8X(.(.9.9.(.&X&X(.8.7.Z.A.3.w.Z.A.K.^.| M qXwX                ",
"                pXtXo . H.R.K.K.$X$X$XQ._ Q ! Q W.W.^ ^ W.$X$XW.y.y.W.W.W Q E.W.$XE.~ ! K.I.^ ^ K.U.Y.H.. % tXpX                ",
"                tXeXS S :.=.F.K.L.R.R.L.w.w.{.|.}.}.3.3.}.}.{.{.w.w.}.}.|.A.Y.R.R.Y.B.B.I.I.B.B.K.D.=.:.A S eXtX                ",
"                tXsXaXtX. . I.Y.L.U.K.P.u.u.W.W.r.0.~ Q q.0.! Q E ! 0.r.%X$XK.K.K.K.U.L.K.K.Y.Y.R.F.. . tXaXsXrX                ",
"                  tXeXeXZ C l.g.h.h.F.I.'.'.T.Y.].'.8.8.'.'.2.3.8.8.'.].T.R.K.K.K.K.G.I.K.F.h.h.g.l.C Z eXrXtX                  ",
"                    tXsXiXeX% . o + F.Y.U.Y.L.L.K.K.U.K.K.K./ ^ K.L.K.K.K.K.K.K.L.L.L.L.Y.F.+ . . % rXtXsXtX                    ",
"                    eXtXtXeXB N N V `.M.V.V.V.V.I.K.K.K.K.P.7.1.K.K.K.K.K.K.K.I.V.V.V.V.M.`.V N N B eXtXeXtX                    ",
"                        tXaXiXiXiXeX6 . . . . = D.L.K.L.K.U.K.L.K.K.L.K.L.K.U.P.= . . . . 6 yXtXpXpXaXrX                        ",
"                        tXtXtXyXtXeX9 - 7 7 8 d J.H.H.H.H.H.H.H.H.H.H.H.H.H.H.J.n 8 7 7 - 9 eXrXrXtXrXrX                        ",
"                                tXpXyXyXrXtXrXuXd 1 < < < < < < < < 2 < < < 1 d uXeXyXtXrXyXaXtX                                ",
"                                rXtXtXiXtXiXiXrX6 . o . . . . . . . . . . o . 6 yXtXtXtXtXtXtXtX                                ",
"                                            rXrXqXqXqXqXqXqXqXqXqXqXqXqXqXqXqXqXrXyX                                            ",
"                                            tXsXaXsXsXaXsXsXaXsXsXsXsXsXaXsXsXsXsXtX                                            ",
"                                                                                                                                ",
"                                                                                                                                ",
"                                                                                                                                ",
"                                                                                                                                ",
"                                                                                                                                ",
"                                                                                                                                ",
"                                                                                                                                ",
"                                                                                                                                ",
"                                                                                                                                ",
"                                                                                                                                ",
"                                                                                                                                ",
"                                                                                                                                ",
"                                                                                                                                ",
"                                                                                                                                ",
"                                                                                                                                "
};
