/* XPM */
static char *f23a0b44261044f0c7d19c3706163dd8OYoccVbfYq3p3RWX[] = {
/* columns rows colors chars-per-pixel */
"64 64 232 2 ",
"   c None",
".  c #000102",
"X  c #080302",
"o  c #00020B",
"O  c #010B0C",
"+  c #170707",
"@  c #05130A",
"#  c #000112",
"$  c #010D13",
"%  c #00061B",
"&  c #021215",
"*  c #031416",
"=  c #001A1C",
"-  c #161713",
";  c #191514",
":  c #131719",
">  c #151C1C",
",  c #1A1B1B",
"<  c #240000",
"1  c #2B0200",
"2  c #2C0C06",
"3  c #320200",
"4  c #330A05",
"5  c #390C06",
"6  c #2E1103",
"7  c #38130D",
"8  c #281716",
"9  c #241D1C",
"0  c #391715",
"q  c #3D1A14",
"w  c #3A1B1A",
"e  c #092919",
"r  c #27201D",
"t  c #3D201D",
"y  c #000C24",
"u  c #001A23",
"i  c #001925",
"p  c #002326",
"a  c #002529",
"s  c #00292D",
"d  c #1C2222",
"f  c #1A2A2B",
"g  c #043639",
"h  c #1C3032",
"j  c #2D2525",
"k  c #272729",
"l  c #332625",
"z  c #3C2524",
"x  c #342827",
"c  c #3C2927",
"v  c #342B2A",
"b  c #3B2C2B",
"n  c #33302F",
"m  c #3C312F",
"M  c #252E30",
"N  c #233133",
"B  c #373535",
"V  c #3B3333",
"C  c #440601",
"Z  c #45140A",
"A  c #431A0E",
"S  c #421B13",
"D  c #471B16",
"F  c #501A13",
"G  c #6D1607",
"H  c #791B08",
"J  c #641D17",
"K  c #741E13",
"L  c #472214",
"P  c #5C261A",
"I  c #7C200F",
"U  c #6E2218",
"Y  c #68271B",
"T  c #762317",
"R  c #7E2212",
"E  c #7D241A",
"W  c #7F3318",
"Q  c #482825",
"!  c #422D2B",
"~  c #492E2D",
"^  c #45312F",
"/  c #4B312E",
"(  c #55302B",
")  c #463331",
"_  c #4A3332",
"`  c #4B3937",
"'  c #443C3A",
"]  c #503633",
"[  c #573837",
"{  c #533D3C",
"}  c #662925",
"|  c #722C25",
" . c #773729",
".. c #793D31",
"X. c #4F423E",
"o. c #54413E",
"O. c #68433A",
"+. c #724338",
"@. c #125150",
"#. c #2E4949",
"$. c #3E5353",
"%. c #484242",
"&. c #554443",
"*. c #5A4544",
"=. c #5C4946",
"-. c #544648",
";. c #54494A",
":. c #5D4B4A",
">. c #53514E",
",. c #5B524E",
"<. c #4A5250",
"1. c #634D4C",
"2. c #664D4C",
"3. c #66534E",
"4. c #69534E",
"5. c #74534C",
"6. c #7B544B",
"7. c #665350",
"8. c #6C5653",
"9. c #6E5956",
"0. c #6E5758",
"q. c #715956",
"w. c #775854",
"e. c #735B59",
"r. c #831E0A",
"t. c #851B1A",
"y. c #882604",
"u. c #862516",
"i. c #98271C",
"p. c #8D3316",
"a. c #993411",
"s. c #A23409",
"d. c #A32C1D",
"f. c #AD2B1C",
"g. c #B22E1C",
"h. c #AE311F",
"j. c #B2311F",
"k. c #853B25",
"l. c #893029",
"z. c #953E25",
"x. c #A92E21",
"c. c #BA2D20",
"v. c #AC3223",
"b. c #A83324",
"n. c #B33322",
"m. c #BA3523",
"M. c #BB3A25",
"N. c #FC3000",
"B. c #C63523",
"V. c #CC3524",
"C. c #C43827",
"Z. c #CE3A26",
"A. c #CD3C2A",
"S. c #D23625",
"D. c #D43B26",
"F. c #DA3D27",
"G. c #D43D29",
"H. c #DA3E29",
"J. c #E03F29",
"K. c #994327",
"L. c #834532",
"P. c #A8472A",
"I. c #B7412B",
"U. c #AB4E33",
"Y. c #BE4333",
"T. c #A2523F",
"R. c #AC543F",
"E. c #B7543B",
"W. c #906735",
"Q. c #C94513",
"!. c #DB4B12",
"~. c #ED490C",
"^. c #FB4704",
"/. c #FF5403",
"(. c #FC570D",
"). c #FD5514",
"_. c #F65518",
"`. c #F4551A",
"'. c #FB5619",
"]. c #FE5B1C",
"[. c #C8492C",
"{. c #D4442C",
"}. c #DC422B",
"|. c #D9482A",
" X c #DA542B",
".X c #C94B35",
"XX c #D34834",
"oX c #DA4A34",
"OX c #C45635",
"+X c #CB5533",
"@X c #CC5A34",
"#X c #D65431",
"$X c #D35B36",
"%X c #DA5A38",
"&X c #E2422B",
"*X c #E24C2E",
"=X c #EA5423",
"-X c #E4532B",
";X c #FB5F21",
":X c #E44D32",
">X c #E55232",
",X c #EB5434",
"<X c #EC5B36",
"1X c #EC5D3A",
"2X c #F25D39",
"3X c #FE6625",
"4X c #FF732E",
"5X c #E9653B",
"6X c #EB633C",
"7X c #F06037",
"8X c #F4643B",
"9X c #FB653B",
"0X c #F4693C",
"qX c #FC6C3E",
"wX c #FF713F",
"eX c #9C5343",
"rX c #A75543",
"tX c #C36343",
"yX c #ED6945",
"uX c #F66B40",
"iX c #FC6D41",
"pX c #F87246",
"aX c #F57250",
"sX c #FC883D",
"dX c #FA8A41",
"fX c #FB9649",
"gX c #D7AB5F",
"hX c #FAA653",
"jX c #FDB35D",
"kX c #F5B863",
"lX c #FCC366",
"zX c #FAC569",
/* pixels */
"                                                                                                , , , O O *         > > > . .   ",
"                                                    &.>     d                                 V b b b b b m m . . . ' &.&.&.X.  ",
"                                                  8.3.+ m b b , , M         - - - 3., 3.8.8.8.8.8.8.8.8.8.8.8.8.:.:.8.8.8.8.8.  ",
"                                                . ,.>.3.8.8.7.      - - ; ; 3.3.4.4.4.4.4.3.3.3.3.3.3.3.3.3.3.3.3.3.3.3.3.3.3.  ",
"                                              X.3.E.#X5.3.7.v     9 3.4.3.4.4.3.3.3.3.3.3.3.3.3.3.3.3.3.3.3.3.3.3.3.3.3.3.      ",
"                                            > 7.4.-X5.4.3.8.=.3.3.3.3.3.4.4.3.3.3.3.3.3.3.3.3.3.3.3.3.3.3.3.3.3.3.3.3.3.        ",
"                                          V b 5.4.<.3.3.3.8.8.4.3.3.3.3.3.3.3.3.3.3.3.3.3.3.3.3.3.3.3.3.3.3.3.3.3.3.3.3.        ",
"                                          &.8.`.4.3.3.3.3.3.3.3.3.3.3.3.3.3.3.3.3.3.3.3.3.3.3.3.3.3.3.3.3.3.3.3.3.3.3.3.        ",
"                                          4.#.eX5. X3.4.3.3.3.3.3.3.3.3.3.3.3.3.3.3.3.3.3.3.3.3.3.3.3.3.3.3.3.3.3.3.3.3.        ",
"                                          3.#XE.4. X3.4.3.8.8.3.3.3.3.3.3.3.3.3.3.3.3.3.3.3.3.3.3.3.3.3.3.3.3.3.3.3.3.3.        ",
"                                          ' #X-X5. X X3.3.=.=.8.8.3.3.3.3.3.3.3.3.3.3.3.3.3.3.3.3.3.3.3.3.3.3.3.3.3.3.3.        ",
"                                        ' ' 6.<.5.5. X3.4.4.=.8.8.8.8.8.8.8.8.8.3.3.3.3.3.3.3.3.3.3.3.3.3.3.3.3.3.3.3.3.        ",
"                                        ' 9.$.6.3.(.#.3.3.3.3.=.o.&.&.&.&.o.=.=.8.3.3.3.3.3.3.3.3.3.3.3.3.3.3.3.3.3.3.3.        ",
"                                        V 9.4.=X3.3.R.#.7 8.8.3.v . . . . . . . =.=.8.8.8.4.4.4.4.3.3.3.3.3.4.4.4.3.3.3.        ",
"                                          V 4.E.`.E.6.+.+.m b 8.3.            . . b b b 7.7.7.7.3.3.3.3.3.3.3.3.4.4.4.4.        ",
"                                          ' ) E. XE./.R.f . b b b                           , , , ; ; ; ; ; ; 3.3.3.3.3.        ",
"                                              l  X/./.rXR.f .   * * *                                       ; ; ; ; ; ; ; ;     ",
"                                                  Q.'.rXR.R.w.; d * * k                                                         ",
"                                                    ( ( /.R.w.n ;                                                               ",
"                                                  i i ( ( 6.`.).w.;                                                             ",
"                                                    i i p Y  X^.-XT.B                                                           ",
"                                                        a.s.y.dX3X-XT._ B                                                       ",
"                                                        k.s.y.(.dX3X@.@.+                                                       ",
"                                                        & !.].].].;XsX|.3.8                                                     ",
"                                                        L '.(.).jXlXhX3X'.'.`.A                                                 ",
"                                                          `.^.4XhXlXfXdXhX].).!.p.                                              ",
"                                                            A 4XzXlXfXsXhX].).Q..                                               ",
"                                                            L ~.hXzXkXzXhXN.`.).Q.$                                             ",
"                                                        s . . . @ = e . gXjX^.P 5 /                                             ",
"                                                        y U.%X+X+X+X+X+XW.W.u.                                                  ",
"                                                        k.%X9XqXqX8X8XqXaXR.E L.                                                ",
"                                                      P uX*X|.0X8X|.oXuXXXyXiX0XP                                               ",
"                                                a # L.yX{.XXXXoX}.XX%XaXXXA.%XpX{.} g                                           ",
"                                              a tXI.OXpXXXoXY.| | M.:X%XoXoXoX%XyX.Xl.a                                         ",
"                                            O.P.6X1X,X1Xv.n.l.= = u.C.G.v.b.m.G.6X:XC.T                                         ",
"                                          a P.iXV.<X<Xc.+ . = _ ] = K A.. . U D.V.Z.G.G.F                                       ",
"                                      O . @X7XD.}.&Xn.o Q ~ _ ^ ! ! z 1 X b c C H.R E &XH.E a                                   ",
"                                a u | m.n.{.*XD.u.K J k 2.{ ! ^ =.2.&.l x ^ ! x I Q Q R u.C O v                                 ",
"                                K.p.i.n.n.V.B.d.: & d _ 1.{ ) &.8.e.:.j x ! _ _ & b b $ & > 8 9                                 ",
"                          ~ 4 F 0X,Xx.o . v.v.o / _ _ ) ! ! &.q.8.8.*.1 . x _ ^ _ ) _ ] ` _ _ ) ;                               ",
"                        y OX7XD.*Xr.M 8.; 1 w ! ^ ! o.8.^ :.8.8.q.s z.6X6 j _ ^ ^ ! o.8.! ! ^ ^ ) l o i                         ",
"                    p f x.*X{.G H [ :.8.x 9 ) 2.) b { 8.! 1.q.8.e.s z.uX6 j _ ^ ) ! o.e.1.{ ! ^ _ o W $Xh                       ",
"                  | u.u.n.g.l.s f :.e.8.*.o.*.1.^ ` :.8.o.2.9.8.4.p z.uX6 j _ ^ ^ ! ` 1.e.o.! ) _ u k.$Xu.}                     ",
"                & v.}.A.& . B e.e.8.8.8.8.q.1.b ^ 1.e.8.9.9.8.8._ o z.8X6 v ` ^ ^ ^ ! ! 8.o.^ ) ^ _ d . G.u.s                   ",
"              O . + < 1 7.8.8.8.8.e.;.. o :.1.) 7.8.8.8.8.8.8.8.[ # K {.< -.1.c ^ ) c O . ;.3.! ) ^ ^ / 2 X . k                 ",
"            n :.-.-.-.:.8.9.8.8.e.g ..$X+ -.2.! 8.9.8.8.8.8.9.8.u P.#XV.1 -.9.:.) _ j 2 @XL.M / ! ^ ^ ) l x z x k :             ",
"          V -.e.q.e.8.2.8.8.8.9.-...P.@X/ :.4.{ 8.8.8.8.8.8.8.1.. $X9XB.3 -.8.:.) _ j 5 8Xp.. ] o._ ^ ^ _ _ _ ) 9 8 v           ",
"        . :.e.8.8.8.=.! 8.8.8.8.. $X@X# 0.9.8.9.8.8.8.8.8.9.1.Q . +X2XB.3 ;.2.z ^ _ l 4 B.E r ] 8.o.! ) ^ ^ ^ ^ ) _ x O         ",
"        . &.e.8.` ^ o.8.8.e.-.O yXK.M q.8.8.8.8.8.8.8.8.8.9.1.! . v.&XG.1 -.2.! ) ^ ^ ~ . $X@X. ] _ ! ! ^ ^ ^ ^ ^ ) x .         ",
"      j -.8.4.{ _ c { q.e.%.} n.,Xy.a e.8.8.9.9.{ 2.9.9.8.9.1.! . j.B.U t :.2.b ) ^ ^ ~ . I.>XOX, j o.1._ _ _ _ _ _ ^ x j       ",
"    h O 0.8.&.! ^ ` :.9.2.p H }.g.} %.q.8.9.8.1.! 1.8.1.8.9.1.! . m.n.. ! 3.2.! ) ^ ^ ~ . f.*X1Xu.D ` 2.x j j j j j l l . h     ",
"  Q Z q 8.{ ! _ ^ 1.e.7._ & E A.. ;.e.8.8.8.=.! ^ 3.1.! 8.9.1.! o n.n.O ! 1.2.! ) ^ ^ ! . n.H.V.}.R $ ~ 4 3 3 3 3 3 3 5 A A !   ",
". @X1Xc.# . > [ 8.e.4._ _ , X 7 z 1.9.8.q.&.^ _ 7.9.1.^ 8.e.1.! ) 0 0 ^ z 2.3.! ^ _ x 5 Z.}.h.o G.T . + C.D.Z.Z.Z.Z.Z.Z.6XqXOX. ",
". %XiX<X@XM.t.% M N a & ) ! x v :.8.e.8.*._ ! _ 8.e.2._ q.1.{ ^ ) x x _ 1.*.{ ^ _ d o . J M.Z.v.G.m.x.n.D.F.D.D.D.S.}.7XqXwX@X. ",
"a U.%X8XiX2X[.k.H H H T x l b ` 9.7.1.1.^ ^ ^ _ 8.7.&.j -.V l ) ^ _ _ ) 2.) 9 l k Y R E J m.H.H.D.H.H.F.D.D.}.*X*X*X<XqX<X8X[.. ",
"  i J D.6X0XqX9X}.H.}.G.Z < 0 _ 7.{ c ! ^ ^ ! _ 8.{ w 3 1 3 w _ ~ ~ ~ ~ ! w 3 5 . n.&XF.H.H.D.D.}.}.G.G.D.S.*XqXqXqX0X6XZ.V.b.& ",
"      A @ M.&X}.H.D.V.D.Z.G.b.. o x ] _ _ ] x . $ . U G.A.G.x.. . . . . . x.G.Z.V.S.D.D.D.D.S.D.0X8X8X8X}.H.}.}.}.&Xm.@ 7 7 !   ",
"          | r.R G #X9X<XD.D.B.d.j.P $ & & $ P n.h.g.m.F.D.D.B.v.h.n.m.m.n.V.D.D.<X2X>XS.D.>X8X8XqXiX9X|.u.R R I I r.|           ",
"            p a i U.5XiX-X*X-X:X&Xd.K u.R K d.J.H.H.F.D.*X>X*XF.}.C.n.n.n.{.>X>XqXqX8X*XD.,X6X@X@X@X[.i.f p a a a p             ",
"                  y  .uX0X0X0X0XG.D.G.D.H.H.H.D.G.{.G.}.8XqX<XB.G.U . o . OXuX0X0X0X0X0XG.D.d.. . . . =                         ",
"                      D q S S q 7 7 2 Z G.H.D.D.8X8X9XqXwXK.o Z 0         / A q S S S q 7 7 Q                                   ",
"                                        E H P.9XqXiX5Xk.K.+.                                                                    ",
"                                        a % L.$X+X$XU.% i                                                                       ",
"                                              . . . a                                                                           "
};
