/* XPM */
static char *_7cdeed017314e789158adb396f89dc5sb7iHB0RVk0yDV54[] = {
/* columns rows colors chars-per-pixel */
"64 64 234 2 ",
"   c None",
".  c #000102",
"X  c #080302",
"o  c #00020B",
"O  c #010B0C",
"+  c #170707",
"@  c #05130A",
"#  c #000112",
"$  c #010D13",
"%  c #00061B",
"&  c #021215",
"*  c #031416",
"=  c #001A1C",
"-  c #161713",
";  c #191514",
":  c #131719",
">  c #151C1C",
",  c #1A1B1B",
"<  c #240000",
"1  c #2B0200",
"2  c #2C0C06",
"3  c #320200",
"4  c #330A05",
"5  c #390C06",
"6  c #2E1103",
"7  c #38130D",
"8  c #281716",
"9  c #241D1C",
"0  c #391715",
"q  c #3D1A14",
"w  c #3A1B1A",
"e  c #092919",
"r  c #27201D",
"t  c #3D201D",
"y  c #000C24",
"u  c #001A23",
"i  c #001925",
"p  c #002326",
"a  c #002529",
"s  c #00292D",
"d  c #1C2222",
"f  c #1A2A2B",
"g  c #043639",
"h  c #1C3032",
"j  c #2D2525",
"k  c #272729",
"l  c #332625",
"z  c #3C2524",
"x  c #342827",
"c  c #3C2927",
"v  c #342B2A",
"b  c #3B2C2B",
"n  c #33302F",
"m  c #3C312F",
"M  c #252E30",
"N  c #233133",
"B  c #373535",
"V  c #3B3333",
"C  c #440601",
"Z  c #45140A",
"A  c #431A0E",
"S  c #421B13",
"D  c #471B16",
"F  c #501A13",
"G  c #6D1607",
"H  c #791B08",
"J  c #641D17",
"K  c #741E13",
"L  c #472214",
"P  c #5C261A",
"I  c #7C200F",
"U  c #6E2218",
"Y  c #68271B",
"T  c #762317",
"R  c #7E2212",
"E  c #7D241A",
"W  c #7F3318",
"Q  c #482825",
"!  c #422D2B",
"~  c #492E2D",
"^  c #45312F",
"/  c #4B312E",
"(  c #55302B",
")  c #463331",
"_  c #4A3332",
"`  c #4B3937",
"'  c #443C3A",
"]  c #503633",
"[  c #573837",
"{  c #533D3C",
"}  c #662925",
"|  c #722C25",
" . c #773729",
".. c #793D31",
"X. c #4F423E",
"o. c #54413E",
"O. c #68433A",
"+. c #724338",
"@. c #125150",
"#. c #2E4949",
"$. c #3E5353",
"%. c #484242",
"&. c #554443",
"*. c #5A4544",
"=. c #5C4946",
"-. c #544648",
";. c #54494A",
":. c #5D4B4A",
">. c #53514E",
",. c #5B524E",
"<. c #4A5250",
"1. c #555350",
"2. c #5A5552",
"3. c #634D4C",
"4. c #664D4C",
"5. c #66534E",
"6. c #69534E",
"7. c #74534C",
"8. c #7B544B",
"9. c #665350",
"0. c #6C5653",
"q. c #6E5956",
"w. c #6E5758",
"e. c #715956",
"r. c #775854",
"t. c #735B59",
"y. c #831E0A",
"u. c #851B1A",
"i. c #882604",
"p. c #862516",
"a. c #98271C",
"s. c #8D3316",
"d. c #993411",
"f. c #A23409",
"g. c #A32C1D",
"h. c #AD2B1C",
"j. c #B22E1C",
"k. c #AE311F",
"l. c #B2311F",
"z. c #853B25",
"x. c #893029",
"c. c #953E25",
"v. c #A92E21",
"b. c #BA2D20",
"n. c #AC3223",
"m. c #A83324",
"M. c #B33322",
"N. c #BA3523",
"B. c #BB3A25",
"V. c #FC3000",
"C. c #C63523",
"Z. c #CC3524",
"A. c #C43827",
"S. c #CE3A26",
"D. c #CD3C2A",
"F. c #D23625",
"G. c #D43B26",
"H. c #DA3D27",
"J. c #D43D29",
"K. c #DA3E29",
"L. c #E03F29",
"P. c #994327",
"I. c #834532",
"U. c #A8472A",
"Y. c #B7412B",
"T. c #AB4E33",
"R. c #BE4333",
"E. c #A2523F",
"W. c #AC543F",
"Q. c #B7543B",
"!. c #906735",
"~. c #C94513",
"^. c #DB4B12",
"/. c #ED490C",
"(. c #FB4704",
"). c #FF5403",
"_. c #FC570D",
"`. c #FD5514",
"'. c #F65518",
"]. c #F4551A",
"[. c #FB5619",
"{. c #FE5B1C",
"}. c #C8492C",
"|. c #D4442C",
" X c #DC422B",
".X c #D9482A",
"XX c #DA542B",
"oX c #C94B35",
"OX c #D34834",
"+X c #DA4A34",
"@X c #C45635",
"#X c #CB5533",
"$X c #CC5A34",
"%X c #D65431",
"&X c #D35B36",
"*X c #DA5A38",
"=X c #E2422B",
"-X c #E24C2E",
";X c #EA5423",
":X c #E4532B",
">X c #FB5F21",
",X c #E44D32",
"<X c #E55232",
"1X c #EB5434",
"2X c #EC5B36",
"3X c #EC5D3A",
"4X c #F25D39",
"5X c #FE6625",
"6X c #FF732E",
"7X c #E9653B",
"8X c #EB633C",
"9X c #F06037",
"0X c #F4643B",
"qX c #FB653B",
"wX c #F4693C",
"eX c #FC6C3E",
"rX c #FF713F",
"tX c #9C5343",
"yX c #A75543",
"uX c #C36343",
"iX c #ED6945",
"pX c #F66B40",
"aX c #FC6D41",
"sX c #F87246",
"dX c #F57250",
"fX c #FC883D",
"gX c #FA8A41",
"hX c #FB9649",
"jX c #D7AB5F",
"kX c #FAA653",
"lX c #FDB35D",
"zX c #F5B863",
"xX c #FCC366",
"cX c #FAC569",
/* pixels */
"                                                                                                      , , O O *       > > . .   ",
"                                                                                                      V b b b m m . . ' &.&.X.  ",
"                                                                                                , 5.0.0.0.0.0.0.0.0.:.0.0.0.0.  ",
"                                                        $ $ &.> k       d d                 - - 5.6.6.5.5.5.5.5.5.5.5.5.5.5.5.  ",
"                                                      . o.0.5.+ + V m b b b b , , M       ; ; 5.6.6.5.5.5.5.5.5.5.5.5.5.5.5.    ",
"                                                    X.5.6.,.>.>.<.5.0.0.0.0.9.V       - - 5.5.6.5.5.5.5.5.5.5.5.5.5.5.5.5.      ",
"                                                > m 9.5.,.Q.;X%X7.7.5.5.5.9.9.v       9 5.6.6.6.5.5.5.5.5.5.5.5.5.5.5.5.5.      ",
"                                              V b 7.7.7.6.:X%X7.5.6.5.5.5.0.=.=.v 5.5.5.5.5.5.5.5.5.5.5.5.5.5.5.5.5.5.5.5.      ",
"                                            . &.0.#X].8.6.<.5.5.5.5.5.5.5.0.0.0.6.6.5.5.5.5.5.5.5.5.5.5.5.5.5.5.5.5.5.5.5.      ",
"                                            o.6.#.#XtX7.1.5.5.5.5.5.5.5.5.5.5.5.5.5.5.5.5.5.5.5.5.5.5.5.5.5.5.5.5.5.5.5.5.      ",
"                                            X.5.%X;XQ.6.1.XXXX5.5.6.5.5.5.5.5.5.5.5.5.5.5.5.5.5.5.5.5.5.5.5.5.5.5.5.5.5.5.      ",
"                                            ' 5.%X:XQ.7.6.XXXX5.5.6.5.5.0.0.0.5.5.5.5.5.5.5.5.5.5.5.5.5.5.5.5.5.5.5.5.5.5.      ",
"                                          ' ' 7.8.<.,.7.7.,.XX7.5.6.5.6.=.=.0.0.0.0.0.0.0.0.0.0.0.5.5.5.5.5.5.5.5.5.5.5.5.      ",
"                                          V q.$.E.8.5.8._.#.,.5.5.5.5.5.5.5.=.o.&.&.&.&.&.o.=.=.=.0.0.6.6.6.5.5.5.6.6.5.5.      ",
"                                            V 6.Q.;X5.5.,.W.#.7 7 0.0.0.5.5.v . . . . . . . . . b b 9.9.9.5.5.5.5.5.6.6.6.      ",
"                                            ' ) Q.;X].Q.8.W.+.+.  m b 0.0.5.r                         , , ; ; ; ; 5.5.5.5.      ",
"                                                l XX).Q.).W.W.f .   b b b V                                     ; ; ; ; ; ;     ",
"                                                    ~.[.).yXW.2.f .   d * * * k                                                 ",
"                                                      ( ( ).yXW.r.n ;                                                           ",
"                                                    i i ( ( 8.].].`.r.;                                                         ",
"                                                      i i p Y XX(.:XE._ B                                                       ",
"                                                        f.d.f.i.gX5X:XE._ B                                                     ",
"                                                        z.f.f.i._.gX5X@.@.+                                                     ",
"                                                        & ^.{.{.{.>XxXfX.X5.8                                                   ",
"                                                        L [._.`.lXxXkX5X[.[.].A                                                 ",
"                                                          ].(.6XkXxXhXgXkX{.`.^.s.                                              ",
"                                                            A 6XcXxXhXfXkX{.`.~..                                               ",
"                                                            L /.kXcXzXcXkXV.].`.~.$                                             ",
"                                                        s . . . @ = e . jXlX(.P 5 /                                             ",
"                                                        y T.*X#X#X#X#X#X!.!.p.                                                  ",
"                                                        z.*XqXeXeX0X0XeXdXW.E I.                                                ",
"                                                      P pX-X.XwX0X.X+XpXOXiXaXwXP                                               ",
"                                                a # I.iX|.OXOX+X XOX*XdXOXD.*XsX|.} g                                           ",
"                                              a uXY.@XsXOX+XR.| | B.,X*X+X+X+X*XiXoXx.a                                         ",
"                                            O.U.8X3X1X3Xn.M.x.= = p.A.J.n.m.N.J.8X,XA.T                                         ",
"                                          a U.aXZ.2X2Xb.+ . = _ ] = K D.. . U G.Z.S.J.J.F                                       ",
"                                      O . $X9XG. X=XM.o Q ~ _ ^ ! ! z 1 X b c C K.R E =XK.E a                                   ",
"                                a u | N.M.|.-XG.p.K J k 4.{ ! ^ =.4.&.l x ^ ! x I Q Q R p.C O v                                 ",
"                                P.s.a.M.M.Z.C.g.: & d _ 3.{ ) &.0.t.:.j x ! _ _ & b b $ & > 8 9                                 ",
"                          ~ 4 F wX1Xv.o . n.n.o / _ _ ) ! ! &.e.0.0.*.1 . x _ ^ _ ) _ ] ` _ _ ) ;                               ",
"                        y @X9XG.-Xy.M 0.; 1 w ! ^ ! o.0.^ :.0.0.e.s c.8X6 j _ ^ ^ ! o.0.! ! ^ ^ ) l o i                         ",
"                    p f v.-X|.G H [ :.0.x 9 ) 4.) b { 0.! 3.e.0.t.s c.pX6 j _ ^ ) ! o.t.3.{ ! ^ _ o W &Xh                       ",
"                  | p.p.M.j.x.s f :.t.0.*.o.*.3.^ ` :.0.o.4.q.0.6.p c.pX6 j _ ^ ^ ! ` 3.t.o.! ) _ u z.&Xp.}                     ",
"                & n. XD.& . B t.t.0.0.0.0.e.3.b ^ 3.t.0.q.q.0.0._ o c.0X6 v ` ^ ^ ^ ! ! 0.o.^ ) ^ _ d . J.p.s                   ",
"              O . + < 1 9.0.0.0.0.t.;.. o :.3.) 9.0.0.0.0.0.0.0.[ # K |.< -.3.c ^ ) c O . ;.5.! ) ^ ^ / 2 X . k                 ",
"            n :.-.-.-.:.0.q.0.0.t.g ..&X+ -.4.! 0.q.0.0.0.0.q.0.u U.%XZ.1 -.q.:.) _ j 2 $XI.M / ! ^ ^ ) l x z x k :             ",
"          V -.t.e.t.0.4.0.0.0.q.-...U.$X/ :.6.{ 0.0.0.0.0.0.0.3.. &XqXC.3 -.0.:.) _ j 5 0Xs.. ] o._ ^ ^ _ _ _ ) 9 8 v           ",
"        . :.t.0.0.0.=.! 0.0.0.0.. &X$X# w.q.0.q.0.0.0.0.0.q.3.Q . #X4XC.3 ;.4.z ^ _ l 4 C.E r ] 0.o.! ) ^ ^ ^ ^ ) _ x O         ",
"        . &.t.0.` ^ o.0.0.t.-.O iXP.M e.0.0.0.0.0.0.0.0.0.q.3.! . n.=XJ.1 -.4.! ) ^ ^ ~ . &X$X. ] _ ! ! ^ ^ ^ ^ ^ ) x .         ",
"      j -.0.6.{ _ c { e.t.%.} M.1Xi.a t.0.0.q.q.{ 4.q.q.0.q.3.! . l.C.U t :.4.b ) ^ ^ ~ . Y.<X@X, j o.3._ _ _ _ _ _ ^ x j       ",
"    h O w.0.&.! ^ ` :.q.4.p H  Xj.} %.e.0.q.0.3.! 3.0.3.0.q.3.! . N.M.. ! 5.4.! ) ^ ^ ~ . h.-X3Xp.D ` 4.x j j j j j l l . h     ",
"  Q Z q 0.{ ! _ ^ 3.t.9._ & E D.. ;.t.0.0.0.=.! ^ 5.3.! 0.q.3.! o M.M.O ! 3.4.! ) ^ ^ ! . M.K.Z. XR $ ~ 4 3 3 3 3 3 3 5 A A !   ",
". $X3Xb.# . > [ 0.t.6._ _ , X 7 z 3.q.0.e.&.^ _ 9.q.3.^ 0.t.3.! ) 0 0 ^ z 4.5.! ^ _ x 5 S. Xk.o J.T . + A.G.S.S.S.S.S.S.8XeX@X. ",
". *XaX2X$XB.u.% M N a & ) ! x v :.0.t.0.*._ ! _ 0.t.4._ e.3.{ ^ ) x x _ 3.*.{ ^ _ d o . J B.S.n.J.N.v.M.G.H.G.G.G.F. X9XeXrX$X. ",
"a T.*X0XaX4X}.z.H H H T x l b ` q.9.3.3.^ ^ ^ _ 0.9.&.j -.V l ) ^ _ _ ) 4.) 9 l k Y R E J N.K.K.G.K.K.H.G.G. X-X-X-X2XeX2X0X}.. ",
"  i J G.8XwXeXqX XK. XJ.Z < 0 _ 9.{ c ! ^ ^ ! _ 0.{ w 3 1 3 w _ ~ ~ ~ ~ ! w 3 5 . M.=XH.K.K.G.G. X XJ.J.G.F.-XeXeXeXwX8XS.Z.m.& ",
"      A @ B.=X XK.G.Z.G.S.J.m.. o x ] _ _ ] x . $ . U J.D.J.v.. . . . . . v.J.S.Z.F.G.G.G.G.F.G.wX0X0X0X XK. X X X=XN.@ 7 7 !   ",
"          | y.R G %XqX2XG.G.C.g.l.P $ & & $ P M.k.j.N.H.G.G.C.n.k.M.N.N.M.Z.G.G.2X4X<XF.G.<X0X0XeXaXqX.Xp.R R I I y.|           ",
"            p a i T.7XaX:X-X:X,X=Xg.K p.R K g.L.K.K.H.G.-X<X-XH. XA.M.M.M.|.<X<XeXeX0X-XG.1X8X$X$X$X}.a.f p a a a p             ",
"                  y  .pXwXwXwXwXJ.G.J.G.K.K.K.G.J.|.J. X0XeX2XC.J.U . o . @XpXwXwXwXwXwXJ.G.g.. . . . =                         ",
"                      D q S S q 7 7 2 Z J.K.G.G.0X0XqXeXrXP.o Z 0         / A q S S S q 7 7 Q                                   ",
"                                        E H U.qXeXaX7Xz.P.+.                                                                    ",
"                                        a % I.&X#X&XT.% i                                                                       ",
"                                              . . . a                                                                           "
};
