/* XPM */
static char *c9a357239f8d4be3e986813d91ac97509yjEfQuTQm4Yedy8[] = {
/* columns rows colors chars-per-pixel */
"64 64 235 2 ",
"   c None",
".  c #000102",
"X  c #080302",
"o  c #00020B",
"O  c #010B0C",
"+  c #170707",
"@  c #05130A",
"#  c #000112",
"$  c #010D13",
"%  c #00061B",
"&  c #021215",
"*  c #031416",
"=  c #001A1C",
"-  c #161713",
";  c #191514",
":  c #131719",
">  c #151C1C",
",  c #1A1B1B",
"<  c #240000",
"1  c #2B0200",
"2  c #2C0C06",
"3  c #320200",
"4  c #330A05",
"5  c #390C06",
"6  c #2E1103",
"7  c #38130D",
"8  c #281716",
"9  c #241D1C",
"0  c #391715",
"q  c #3D1A14",
"w  c #3A1B1A",
"e  c #092919",
"r  c #27201D",
"t  c #3D201D",
"y  c #000C24",
"u  c #001A23",
"i  c #001925",
"p  c #002326",
"a  c #002529",
"s  c #00292D",
"d  c #1C2222",
"f  c #1A2A2B",
"g  c #043639",
"h  c #1C3032",
"j  c #2D2525",
"k  c #272729",
"l  c #332625",
"z  c #3C2524",
"x  c #342827",
"c  c #3C2927",
"v  c #342B2A",
"b  c #3B2C2B",
"n  c #33302F",
"m  c #3C312F",
"M  c #252E30",
"N  c #233133",
"B  c #373535",
"V  c #3B3333",
"C  c #440601",
"Z  c #45140A",
"A  c #431A0E",
"S  c #421B13",
"D  c #471B16",
"F  c #501A13",
"G  c #6D1607",
"H  c #791B08",
"J  c #641D17",
"K  c #741E13",
"L  c #472214",
"P  c #5C261A",
"I  c #7C200F",
"U  c #6E2218",
"Y  c #68271B",
"T  c #762317",
"R  c #7E2212",
"E  c #7D241A",
"W  c #7F3318",
"Q  c #482825",
"!  c #422D2B",
"~  c #492E2D",
"^  c #45312F",
"/  c #4B312E",
"(  c #55302B",
")  c #463331",
"_  c #4A3332",
"`  c #4B3937",
"'  c #443C3A",
"]  c #503633",
"[  c #573837",
"{  c #533D3C",
"}  c #662925",
"|  c #722C25",
" . c #773729",
".. c #793D31",
"X. c #4F423E",
"o. c #54413E",
"O. c #68433A",
"+. c #724338",
"@. c #125150",
"#. c #2E4949",
"$. c #3E5353",
"%. c #484242",
"&. c #554443",
"*. c #5A4544",
"=. c #5C4946",
"-. c #544648",
";. c #54494A",
":. c #5D4B4A",
">. c #4A524F",
",. c #53514E",
"<. c #5B524E",
"1. c #4A5250",
"2. c #555350",
"3. c #5A5552",
"4. c #634D4C",
"5. c #664D4C",
"6. c #66534E",
"7. c #69534E",
"8. c #74534C",
"9. c #7B544B",
"0. c #665350",
"q. c #6C5653",
"w. c #6E5956",
"e. c #6E5758",
"r. c #715956",
"t. c #775854",
"y. c #735B59",
"u. c #831E0A",
"i. c #851B1A",
"p. c #882604",
"a. c #862516",
"s. c #98271C",
"d. c #8D3316",
"f. c #993411",
"g. c #A23409",
"h. c #A32C1D",
"j. c #AD2B1C",
"k. c #B22E1C",
"l. c #AE311F",
"z. c #B2311F",
"x. c #853B25",
"c. c #893029",
"v. c #953E25",
"b. c #A92E21",
"n. c #BA2D20",
"m. c #AC3223",
"M. c #A83324",
"N. c #B33322",
"B. c #BA3523",
"V. c #BB3A25",
"C. c #FC3000",
"Z. c #C63523",
"A. c #CC3524",
"S. c #C43827",
"D. c #CE3A26",
"F. c #CD3C2A",
"G. c #D23625",
"H. c #D43B26",
"J. c #DA3D27",
"K. c #D43D29",
"L. c #DA3E29",
"P. c #E03F29",
"I. c #994327",
"U. c #834532",
"Y. c #A8472A",
"T. c #B7412B",
"R. c #AB4E33",
"E. c #BE4333",
"W. c #A2523F",
"Q. c #AC543F",
"!. c #B7543B",
"~. c #906735",
"^. c #C94513",
"/. c #DB4B12",
"(. c #ED490C",
"). c #FB4704",
"_. c #FF5403",
"`. c #FC570D",
"'. c #FD5514",
"]. c #F65518",
"[. c #F4551A",
"{. c #FB5619",
"}. c #FE5B1C",
"|. c #C8492C",
" X c #D4442C",
".X c #DC422B",
"XX c #D9482A",
"oX c #DA542B",
"OX c #C94B35",
"+X c #D34834",
"@X c #DA4A34",
"#X c #C45635",
"$X c #CB5533",
"%X c #CC5A34",
"&X c #D65431",
"*X c #D35B36",
"=X c #DA5A38",
"-X c #E2422B",
";X c #E24C2E",
":X c #EA5423",
">X c #E4532B",
",X c #FB5F21",
"<X c #E44D32",
"1X c #E55232",
"2X c #EB5434",
"3X c #EC5B36",
"4X c #EC5D3A",
"5X c #F25D39",
"6X c #FE6625",
"7X c #FF732E",
"8X c #E9653B",
"9X c #EB633C",
"0X c #F06037",
"qX c #F4643B",
"wX c #FB653B",
"eX c #F4693C",
"rX c #FC6C3E",
"tX c #FF713F",
"yX c #9C5343",
"uX c #A75543",
"iX c #C36343",
"pX c #ED6945",
"aX c #F66B40",
"sX c #FC6D41",
"dX c #F87246",
"fX c #F57250",
"gX c #FC883D",
"hX c #FA8A41",
"jX c #FB9649",
"kX c #D7AB5F",
"lX c #FAA653",
"zX c #FDB35D",
"xX c #F5B863",
"cX c #FCC366",
"vX c #FAC569",
/* pixels */
"                                                                                                                        > . .   ",
"                                                                                                          , , O * * . . ' &.X.  ",
"                                                                                                          V b b b m x :.q.q.q.  ",
"                                                                                                      , 6.q.q.q.q.q.q.6.6.6.6.  ",
"                                                                                                    - - 6.7.6.6.6.6.6.6.6.6.6.  ",
"                                                                          > k       d d d , M       ; 6.7.7.6.6.6.6.6.6.6.6.    ",
"                                                                  $ $ &.w.v     V m b b b V       - 6.6.7.6.6.6.6.6.6.6.6.6.    ",
"                                                                . o.o.q.6.r + + ) r.q.q.q.0.9     9 6.7.7.6.6.6.6.6.6.6.6.6.    ",
"                                                        > > k X.6.7.7.7.<.,.,.>.1.6.6.6.6.0.v v 6.6.6.6.6.6.6.6.6.6.6.6.6.6.    ",
"                                                    V b b m q.0.6.6.6.<.!.#X:X&X8.8.6.7.6.q.=.=.7.6.6.6.6.6.6.6.6.6.6.6.6.6.    ",
"                                                  . &.w.q.7.8.8.8.8.7.7.2.>X&X&X8.6.7.6.6.6.q.q.6.6.6.6.6.6.6.6.6.6.6.6.6.6.    ",
"                                                  o.7.7.#.$X$X'.[.9.9.7.6.1.2.6.6.6.6.6.6.6.6.6.6.6.6.6.6.6.6.6.6.6.6.6.6.6.    ",
"                                                X.4.6.8.&X'.:X:XyX8.2.2.yX6.2.6.6.6.6.6.6.6.6.6.6.6.6.6.6.6.6.6.6.6.6.6.6.6.    ",
"                                              ' ' 7.6.7.&X>X!.!.$.7.2.2.yXoXoX8.6.6.7.6.6.q.q.q.q.q.q.q.q.q.6.6.6.6.6.6.6.6.    ",
"                                              V w.6.8.9.1.1.1.<.7.8.8.7.<.oXoX8.6.6.7.6.7.=.=.o.&.&.&.o.=.=.q.7.7.6.6.7.7.7.    ",
"                                              : V 7.$.W.[.9.7.6.9.9.`.uX#.<.>.6.6.6.6.6.6.6.v . . . . . . b 0.0.6.6.6.6.6.6.    ",
"                                                ' ) 3.!.:X[.6.<.6.<.Q.Q.uX#.7 7 0.q.q.q.6.r                   , ; ; ; ; ; ; ;   ",
"                                                    l #.oX_.[.!.8.9.Q.3.+.+.h   m b b b V                                       ",
"                                                        $ ^.{.[._.uXQ.Q.3.f . .   d * * * k                                     ",
"                                                            ( ( 9._.uXQ._.t.n ;                                                 ",
"                                                        i i   ( ( 9.[.[.[.'.t.n ;                                               ",
"                                                          i i p # Y oX)._.>XW._ B                                               ",
"                                                          x.g.f.g.p.`.hX6X&X@.@.+                                               ",
"                                                          & /.}.}.6X}.,XcXgXXX6.8                                               ",
"                                                          L {.`.'.zXcXlXC.6X{.{.[.A                                             ",
"                                                          Z [.).7XlXcXjXhXlX}.'./.d.                                            ",
"                                                            A '.7XvXcXjXgXlX}.'.^..                                             ",
"                                                            L (.lXvXxXxXvXlXC.[.'.^.$                                           ",
"                                                        s . . . @ = e . kXzX).P 5 /                                             ",
"                                                        y R.=X$X$X$X$X$X~.~.a.                                                  ",
"                                                        x.=XwXrXrXqXqXrXfXQ.E U.                                                ",
"                                                      P aX;XXXeXqXXX@XaX+XpXsXeXP                                               ",
"                                                a # U.pX X+X+X@X.X+X=XfX+XF.=XdX X} g                                           ",
"                                              a iXT.#XdX+X@XE.| | V.<X=X@X@X@X=XpXOXc.a                                         ",
"                                            O.Y.9X4X2X4Xm.N.c.= = a.S.K.m.M.B.K.9X<XS.T                                         ",
"                                          a Y.sXA.3X3Xn.+ . = _ ] = K F.. . U H.A.D.K.K.F                                       ",
"                                      O . %X0XH..X-XN.o Q ~ _ ^ ! ! z 1 X b c C L.R E -XL.E a                                   ",
"                                a u | B.N. X;XH.a.K J k 5.{ ! ^ =.5.&.l x ^ ! x I Q Q R a.C O v                                 ",
"                                I.d.s.N.N.A.Z.h.: & d _ 4.{ ) &.q.y.:.j x ! _ _ & b b $ & > 8 9                                 ",
"                          ~ 4 F eX2Xb.o . m.m.o / _ _ ) ! ! &.r.q.q.*.1 . x _ ^ _ ) _ ] ` _ _ ) ;                               ",
"                        y #X0XH.;Xu.M q.; 1 w ! ^ ! o.q.^ :.q.q.r.s v.9X6 j _ ^ ^ ! o.q.! ! ^ ^ ) l o i                         ",
"                    p f b.;X XG H [ :.q.x 9 ) 5.) b { q.! 4.r.q.y.s v.aX6 j _ ^ ) ! o.y.4.{ ! ^ _ o W *Xh                       ",
"                  | a.a.N.k.c.s f :.y.q.*.o.*.4.^ ` :.q.o.5.w.q.7.p v.aX6 j _ ^ ^ ! ` 4.y.o.! ) _ u x.*Xa.}                     ",
"                & m..XF.& . B y.y.q.q.q.q.r.4.b ^ 4.y.q.w.w.q.q._ o v.qX6 v ` ^ ^ ^ ! ! q.o.^ ) ^ _ d . K.a.s                   ",
"              O . + < 1 0.q.q.q.q.y.;.. o :.4.) 0.q.q.q.q.q.q.q.[ # K  X< -.4.c ^ ) c O . ;.6.! ) ^ ^ / 2 X . k                 ",
"            n :.-.-.-.:.q.w.q.q.y.g ..*X+ -.5.! q.w.q.q.q.q.w.q.u Y.&XA.1 -.w.:.) _ j 2 %XU.M / ! ^ ^ ) l x z x k :             ",
"          V -.y.r.y.q.5.q.q.q.w.-...Y.%X/ :.7.{ q.q.q.q.q.q.q.4.. *XwXZ.3 -.q.:.) _ j 5 qXd.. ] o._ ^ ^ _ _ _ ) 9 8 v           ",
"        . :.y.q.q.q.=.! q.q.q.q.. *X%X# e.w.q.w.q.q.q.q.q.w.4.Q . $X5XZ.3 ;.5.z ^ _ l 4 Z.E r ] q.o.! ) ^ ^ ^ ^ ) _ x O         ",
"        . &.y.q.` ^ o.q.q.y.-.O pXI.M r.q.q.q.q.q.q.q.q.q.w.4.! . m.-XK.1 -.5.! ) ^ ^ ~ . *X%X. ] _ ! ! ^ ^ ^ ^ ^ ) x .         ",
"      j -.q.7.{ _ c { r.y.%.} N.2Xp.a y.q.q.w.w.{ 5.w.w.q.w.4.! . z.Z.U t :.5.b ) ^ ^ ~ . T.1X#X, j o.4._ _ _ _ _ _ ^ x j       ",
"    h O e.q.&.! ^ ` :.w.5.p H .Xk.} %.r.q.w.q.4.! 4.q.4.q.w.4.! . B.N.. ! 6.5.! ) ^ ^ ~ . j.;X4Xa.D ` 5.x j j j j j l l . h     ",
"  Q Z q q.{ ! _ ^ 4.y.0._ & E F.. ;.y.q.q.q.=.! ^ 6.4.! q.w.4.! o N.N.O ! 4.5.! ) ^ ^ ! . N.L.A..XR $ ~ 4 3 3 3 3 3 3 5 A A !   ",
". %X4Xn.# . > [ q.y.7._ _ , X 7 z 4.w.q.r.&.^ _ 0.w.4.^ q.y.4.! ) 0 0 ^ z 5.6.! ^ _ x 5 D..Xl.o K.T . + S.H.D.D.D.D.D.D.9XrX#X. ",
". =XsX3X%XV.i.% M N a & ) ! x v :.q.y.q.*._ ! _ q.y.5._ r.4.{ ^ ) x x _ 4.*.{ ^ _ d o . J V.D.m.K.B.b.N.H.J.H.H.H.G..X0XrXtX%X. ",
"a R.=XqXsX5X|.x.H H H T x l b ` w.0.4.4.^ ^ ^ _ q.0.&.j -.V l ) ^ _ _ ) 5.) 9 l k Y R E J B.L.L.H.L.L.J.H.H..X;X;X;X3XrX3XqX|.. ",
"  i J H.9XeXrXwX.XL..XK.Z < 0 _ 0.{ c ! ^ ^ ! _ q.{ w 3 1 3 w _ ~ ~ ~ ~ ! w 3 5 . N.-XJ.L.L.H.H..X.XK.K.H.G.;XrXrXrXeX9XD.A.M.& ",
"      A @ V.-X.XL.H.A.H.D.K.M.. o x ] _ _ ] x . $ . U K.F.K.b.. . . . . . b.K.D.A.G.H.H.H.H.G.H.eXqXqXqX.XL..X.X.X-XB.@ 7 7 !   ",
"          | u.R G &XwX3XH.H.Z.h.z.P $ & & $ P N.l.k.B.J.H.H.Z.m.l.N.B.B.N.A.H.H.3X5X1XG.H.1XqXqXrXsXwXXXa.R R I I u.|           ",
"            p a i R.8XsX>X;X>X<X-Xh.K a.R K h.P.L.L.J.H.;X1X;XJ..XS.N.N.N. X1X1XrXrXqX;XH.2X9X%X%X%X|.s.f p a a a p             ",
"                  y  .aXeXeXeXeXK.H.K.H.L.L.L.H.K. XK..XqXrX3XZ.K.U . o . #XaXeXeXeXeXeXK.H.h.. . . . =                         ",
"                      D q S S q 7 7 2 Z K.L.H.H.qXqXwXrXtXI.o Z 0         / A q S S S q 7 7 Q                                   ",
"                                        E H Y.wXrXsX8Xx.I.+.                                                                    ",
"                                        a % U.*X$X*XR.% i                                                                       ",
"                                              . . . a                                                                           "
};
