/* XPM */
static char *b2a27d0f69e44bcfbe46841e59c917ef3CJsEm9Opp3Ui3Jb[] = {
/* columns rows colors chars-per-pixel */
"64 64 238 2 ",
"   c None",
".  c #000102",
"X  c #00020B",
"o  c #010B0C",
"O  c #080302",
"+  c #170707",
"@  c #05130A",
"#  c #000112",
"$  c #010D13",
"%  c #00061B",
"&  c #021215",
"*  c #001A1C",
"=  c #031416",
"-  c #191514",
";  c #131719",
":  c #151C1C",
">  c #1A1B1B",
",  c #161713",
"<  c #240000",
"1  c #2B0200",
"2  c #2C0C06",
"3  c #320200",
"4  c #330A05",
"5  c #390C06",
"6  c #2E1103",
"7  c #38130D",
"8  c #241D1C",
"9  c #281716",
"0  c #3D1A14",
"q  c #3A1B1A",
"w  c #391715",
"e  c #092919",
"r  c #27201D",
"t  c #3D201D",
"y  c #000C24",
"u  c #001A23",
"i  c #001925",
"p  c #002326",
"a  c #002529",
"s  c #00292D",
"d  c #1C2222",
"f  c #1A2A2B",
"g  c #043639",
"h  c #1C3032",
"j  c #0B2F30",
"k  c #2D2525",
"l  c #272729",
"z  c #332625",
"x  c #3C2524",
"c  c #3C2927",
"v  c #342B2A",
"b  c #3B2C2B",
"n  c #342827",
"m  c #3C312F",
"M  c #33302F",
"N  c #252E30",
"B  c #3B3333",
"V  c #373535",
"C  c #233133",
"Z  c #440601",
"A  c #431A0E",
"S  c #45140A",
"D  c #421B13",
"F  c #471B16",
"G  c #501A13",
"H  c #6D1607",
"J  c #791B08",
"K  c #641D17",
"L  c #741E13",
"P  c #5C261A",
"I  c #472214",
"U  c #7C200F",
"Y  c #6E2218",
"T  c #68271B",
"R  c #7E2212",
"E  c #7D241A",
"W  c #762317",
"Q  c #7F3318",
"!  c #422D2B",
"~  c #492E2D",
"^  c #482825",
"/  c #45312F",
"(  c #4B312E",
")  c #463331",
"_  c #4A3332",
"`  c #443C3A",
"'  c #4B3937",
"]  c #503633",
"[  c #533D3C",
"{  c #573837",
"}  c #55302B",
"|  c #662925",
" . c #722C25",
".. c #773729",
"X. c #793D31",
"o. c #4F423E",
"O. c #54413E",
"+. c #724338",
"@. c #68433A",
"#. c #3E5353",
"$. c #2E4949",
"%. c #125150",
"&. c #484242",
"*. c #554443",
"=. c #5A4544",
"-. c #5C4946",
";. c #544648",
":. c #54494A",
">. c #5D4B4A",
",. c #4A524F",
"<. c #5B524E",
"1. c #53514E",
"2. c #4A5250",
"3. c #555350",
"4. c #5A5552",
"5. c #634D4C",
"6. c #664D4C",
"7. c #66534E",
"8. c #69534E",
"9. c #74534C",
"0. c #7B544B",
"q. c #665350",
"w. c #6C5653",
"e. c #6E5956",
"r. c #6E5758",
"t. c #715956",
"y. c #735B59",
"u. c #775854",
"i. c #831E0A",
"p. c #851B1A",
"a. c #882604",
"s. c #862516",
"d. c #98271C",
"f. c #8D3316",
"g. c #993411",
"h. c #A32C1D",
"j. c #AD2B1C",
"k. c #B22E1C",
"l. c #AE311F",
"z. c #B2311F",
"x. c #A23409",
"c. c #853B25",
"v. c #953E25",
"b. c #893029",
"n. c #A92E21",
"m. c #BA2D20",
"M. c #AC3223",
"N. c #A83324",
"B. c #B33322",
"V. c #BA3523",
"C. c #BB3A25",
"Z. c #C03C0D",
"A. c #FC3000",
"S. c #C63523",
"D. c #CC3524",
"F. c #CE3A26",
"G. c #CD3C2A",
"H. c #C43827",
"J. c #D23625",
"K. c #D43B26",
"L. c #DA3D27",
"P. c #D43D29",
"I. c #DA3E29",
"U. c #E03F29",
"Y. c #994327",
"T. c #834532",
"R. c #914934",
"E. c #A8472A",
"W. c #B7412B",
"Q. c #AB4E33",
"!. c #AC543F",
"~. c #A2523F",
"^. c #B7543B",
"/. c #BE4333",
"(. c #906735",
"). c #DB4B12",
"_. c #C94513",
"`. c #FB4704",
"'. c #FF5403",
"]. c #FC570D",
"[. c #FD5514",
"{. c #F4551A",
"}. c #FB5619",
"|. c #FE5B1C",
" X c #F65518",
".X c #ED490C",
"XX c #C8492C",
"oX c #D4442C",
"OX c #DC422B",
"+X c #D9482A",
"@X c #DA542B",
"#X c #C94B35",
"$X c #DA4A34",
"%X c #D34834",
"&X c #CB5533",
"*X c #CC5A34",
"=X c #C45635",
"-X c #D65431",
";X c #D35B36",
":X c #DA5A38",
">X c #E2422B",
",X c #E24C2E",
"<X c #E4532B",
"1X c #EA5423",
"2X c #E44D32",
"3X c #E55232",
"4X c #EC5B36",
"5X c #EC5D3A",
"6X c #EB5434",
"7X c #F25D39",
"8X c #FB5F21",
"9X c #FE6625",
"0X c #EB633C",
"qX c #E9653B",
"wX c #F4643B",
"eX c #FB653B",
"rX c #F4693C",
"tX c #FC6C3E",
"yX c #F06037",
"uX c #FF713F",
"iX c #FF732E",
"pX c #9C5343",
"aX c #A75543",
"sX c #C36343",
"dX c #ED6945",
"fX c #FC6D41",
"gX c #F66B40",
"hX c #F87246",
"jX c #F57250",
"kX c #FC883D",
"lX c #FA8A41",
"zX c #FB9649",
"xX c #D7AB5F",
"cX c #FAA653",
"vX c #FDB35D",
"bX c #F5B863",
"nX c #FCC366",
"mX c #FAC569",
/* pixels */
"                                                                                                                          : . . ",
"                                                                                                                > o = = . ` *.o.",
"                                                                                                                B b b m n >.w.w.",
"                                                                                                              > 7.w.w.w.w.7.7.7.",
"                                                                                                              , 7.8.7.7.7.7.7.7.",
"                                                                                    : l       d d d > N       - 7.8.7.7.7.7.7.7.",
"                                                                                  B b v     B m b b b B       , 7.8.7.7.7.7.7.7.",
"                                                                                $ *.e.7.r + ) t.w.w.w.q.8     8 7.8.7.7.7.7.7.7.",
"                                                                                . O.w.7.7.1.,.2.7.7.7.7.q.v v 7.7.7.7.7.7.7.7.7.",
"                                                                            : l o.7.8.8.<.=X1X-X9.7.8.7.w.-.-.8.7.7.7.7.7.7.7.7.",
"                                                                          B b m w.q.7.7.<.^.<X-X9.7.8.7.7.w.w.7.7.7.7.7.7.7.7.7.",
"                                                                        . *.e.w.8.9.9.9.8.3.2.3.7.7.7.7.7.7.7.7.7.7.7.7.7.7.7.7.",
"                                                                        . O.8.8.$.&X[.{.0.8.7.3.7.7.7.7.7.7.7.7.7.7.7.7.7.7.7.7.",
"                                                                      > o.5.7.9.-X[.1XpX9.3.pX@X9.7.8.7.7.w.w.w.w.w.w.7.7.7.7.7.",
"                                                                    ` ` 7.8.7.8.-X<X^.#.8.3.pX@X9.7.8.7.8.-.O.*.*.O.-.w.8.7.8.8.",
"                                                                  ; B e.7.8.9.0.2.2.<.8.9.8.<.,.7.7.7.7.7.v . . . . b q.7.7.7.7.",
"                                                                  ; B e.8.#.~.{.0.8.7.0.].aX$.7 q.w.w.7.r             > - - - - ",
"                                                                    ` ) 4.^.1X X7.<.7.<.!.+.h   m b b B                         ",
"                                                                      z $.@X'.{.^.9.0.!.4.f .   d = = l                         ",
"                                                                        $ _.}.{.'.aX!.'.u.M -                                   ",
"                                                                          } } 0.{. X X[.u.M -                                   ",
"                                                                    i i p # T @X`.'.<X~._ V                                     ",
"                                                                  c.x.g.x.a.Z.].lX9X-X%.+                                       ",
"                                                                & ).|.|.9X9X|.8XnXkX+X7.9                                       ",
"                                                              I  X}.].[.vXnXcXA.9X}.}.{.A                                       ",
"                                                              S  X`.iXcXnXzXlXcX|.[.).f.                                        ",
"                                                              A [.iXcXmXnXzXkXcX|.[._..                                         ",
"                                                              I .XcXmXbXbXmXcXA. X[._.$                                         ",
"                                                          s . . . @ * e . xXvX`.P 5 (                                           ",
"                                                        y Q.:X&X&X&X&X&X&X(.(.s.                                                ",
"                                                        c.:XeXtXtXwXwXtXjX!.E T.                                                ",
"                                                      P gX,X+XrXwX+X$XgX%XdXfXrXP                                               ",
"                                                a # T.dXoX%X%X$XOX%X:XjX%XG.:XhXoX| g                                           ",
"                                              a sXW.=XhX%X$X/. . .C.2X:X$X$X$X:XdX#Xb.a                                         ",
"                                            @.E.0X5X6X5XM.B.b.* * s.H.P.M.N.V.P.0X2XH.W                                         ",
"                                          a E.fXD.4X4Xm.+ . * _ ] * L G.. . Y K.D.F.P.P.G                                       ",
"                                      o . *XyXK.OX>XB.X ^ ~ _ / ! ! x 1 O b c Z I.R E >XI.E a                                   ",
"                                a u  .V.B.oX,XK.s.L K l 6.[ ! / -.6.*.z n / ! n U ^ ^ R s.Z o v                                 ",
"                                Y.f.d.B.B.D.S.h.; & d _ 5.[ ) *.w.y.>.k n ! _ _ & b b $ & : 9 8                                 ",
"                          ~ 4 G rX6Xn.X . M.M.X ( _ _ ) ! ! *.t.w.w.=.1 . n _ / _ ) _ ] ' _ _ ) -                               ",
"                        y =XyXK.,Xi.N w.- 1 q ! / ! O.w./ >.w.w.t.s v.0X6 k _ / / ! O.w.! ! / / ) z X i                         ",
"                    p f n.,XoXH J { >.w.n 8 ) 6.) b [ w.! 5.t.w.y.s v.gX6 k _ / ) ! O.y.5.[ ! / _ X Q ;Xh                       ",
"                   .s.s.B.k.b.s f >.y.w.=.O.=.5./ ' >.w.O.6.e.w.8.p v.gX6 k _ / / ! ' 5.y.O.! ) _ u c.;Xs.|                     ",
"                & M.OXG.& . V y.y.w.w.w.w.t.5.b / 5.y.w.e.e.w.w._ X v.wX6 v ' / / / ! ! w.O./ ) / _ d . P.s.s                   ",
"              o . + < 1 q.w.w.w.w.y.:.. X >.5.) q.w.w.w.w.w.w.w.{ # L oX< ;.5.c / ) c o . :.7.! ) / / ( 2 O . l                 ",
"            M >.;.;.;.>.w.e.w.w.y.g X.;X+ ;.6.! w.e.w.w.w.w.e.w.u E.-XD.1 ;.e.>.) _ k 2 *XT.N ( ! / / ) z n x n l ;             ",
"          B ;.y.t.y.w.6.w.w.w.e.;.X.E.*X( >.8.[ w.w.w.w.w.w.w.5.. ;XeXS.3 ;.w.>.) _ k 5 wXf.. ] O._ / / _ _ _ ) 8 9 v           ",
"        . >.y.w.w.w.-.! w.w.w.w.. ;X*X# r.e.w.e.w.w.w.w.w.e.5.^ . &X7XS.3 :.6.x / _ z 4 S.E r ] w.O.! ) / / / / ) _ n o         ",
"        . *.y.w.' / O.w.w.y.;.o dXY.N t.w.w.w.w.w.w.w.w.w.e.5.! . M.>XP.1 ;.6.! ) / / ~ . ;X*X. ] _ ! ! / / / / / ) n .         ",
"      k ;.w.8.[ _ c [ t.y.&.| B.6Xa.a y.w.w.e.e.[ 6.e.e.w.e.5.! . z.S.Y t >.6.b ) / / ~ . W.3X=X> k O.5._ _ _ _ _ _ / n k       ",
"    h o r.w.*.! / ' >.e.6.p J OXk.| &.t.w.e.w.5.! 5.w.5.w.e.5.! . V.B.. ! 7.6.! ) / / ~ . j.,X5Xs.F ' 6.n k k k k k z z . h     ",
"  ^ S 0 w.[ ! _ / 5.y.q._ & E G.. :.y.w.w.w.-.! / 7.5.! w.e.5.! X B.B.o ! 5.6.! ) / / ! . B.I.D.OXR $ ~ 4 3 3 3 3 3 3 5 A A !   ",
". *X5Xm.# . : { w.y.8._ _ > O 7 x 5.e.w.t.*./ _ q.e.5./ w.y.5.! ) w w / x 6.7.! / _ n 5 F.OXl.X P.W . + H.K.F.F.F.F.F.F.0XtX=X. ",
". :XfX4X*XC.p.% N C a & ) ! n v >.w.y.w.=._ ! _ w.y.6._ t.5.[ / ) n n _ 5.=.[ / _ d X . K C.F.M.P.V.n.B.K.L.K.K.K.J.OXyXtXuX*X. ",
"a Q.:XwXfX7XXXc.J J J W n z b ' e.q.5.5./ / / _ w.q.*.k ;.B z ) / _ _ ) 6.) 8 z l T R E K V.I.I.K.I.I.L.K.K.OX,X,X,X4XtX4XwXXX. ",
"  i K K.0XrXtXeXOXI.OXP.S < w _ q.[ c ! / / ! _ w.[ q 3 1 3 q _ ~ ~ ~ ~ ! q 3 5 . B.>XL.I.I.K.K.OXOXP.P.K.J.,XtXtXtXrX0XF.D.N.& ",
"      A @ C.>XOXI.K.D.K.F.P.N.. X n ] _ _ ] n . $ . Y P.G.P.n.. . . . . . n.P.F.D.J.K.K.K.K.J.K.rXwXwXwXOXI.OXOXOX>XV.@ 7 7 !   ",
"           .i.R H -XeX4XK.K.S.h.z.P $ & & $ P B.l.k.V.L.K.K.S.M.l.B.V.V.B.D.K.K.4X7X3XJ.K.3XwXwXtXfXeX+Xs.R R U U i. .          ",
"            p a i Q.qXfX<X,X<X2X>Xh.L s.R L h.U.I.I.L.K.,X3X,XL.OXH.B.B.B.oX3X3XtXtXwX,XK.6X0X*X*X*XXXd.f p a a a p             ",
"                  y ..gXrXrXrXrXP.K.P.K.I.I.I.K.P.oXP.OXwXtX4XS.P.Y . X . =XgXrXrXrXrXrXP.K.h.. . . . *                         ",
"                      F 0 D D 0 7 7 2 S P.I.K.K.wXwXeXtXuXY.X S w         ( A 0 D D D 0 7 7 ^                                   ",
"                                        E J E.eXtXfXqXc.Y.+.                                                                    ",
"                                        a % T.;X&X;XQ.% i                                                                       ",
"                                              . . . a                                                                           "
};
