/* XPM */
static char *_d47ea3f79eb4ddda08125aa73e6f400PKYYOcO8UoIzV8KP[] = {
/* columns rows colors chars-per-pixel */
"64 64 172 2 ",
"   c None",
".  c black",
"X  c #00000B",
"o  c #1D0000",
"O  c #290000",
"+  c #340300",
"@  c #3D0300",
"#  c #320E0C",
"$  c #3D1900",
"%  c #421E00",
"&  c #4F2900",
"*  c #422209",
"=  c #5E3700",
"-  c #5D3800",
";  c #51300D",
":  c #674000",
">  c #694300",
",  c #7B5200",
"<  c #624D31",
"1  c #6A5230",
"2  c #C70001",
"3  c #CA0001",
"4  c #CB0801",
"5  c #D40101",
"6  c #DE0101",
"7  c #DE0B02",
"8  c #CC1501",
"9  c #C71C01",
"0  c #CC1D01",
"q  c #DF1401",
"w  c #D41E01",
"e  c #DB1F01",
"r  c #E00001",
"t  c #E00B01",
"y  c #E01301",
"u  c #E01D01",
"i  c #CC2401",
"p  c #CC2A01",
"a  c #D42301",
"s  c #DE2101",
"d  c #D32901",
"f  c #DC2901",
"g  c #D72B0E",
"h  c #CF3C01",
"j  c #DC3901",
"k  c #E02101",
"l  c #E12A01",
"z  c #E13301",
"x  c #E23C01",
"c  c #845800",
"v  c #936600",
"b  c #9F6F00",
"n  c #9B7000",
"m  c #A27200",
"M  c #A97808",
"N  c #CF4201",
"B  c #D14301",
"V  c #D54E01",
"C  c #DF4901",
"Z  c #D45400",
"A  c #D75A01",
"S  c #E34301",
"D  c #E44C01",
"F  c #E55301",
"G  c #E65A02",
"H  c #E45410",
"J  c #D76001",
"K  c #D96501",
"L  c #DC6E01",
"P  c #DD7502",
"I  c #DF780C",
"U  c #E66301",
"Y  c #E86601",
"T  c #E96C01",
"R  c #E96E0E",
"E  c #EA7301",
"W  c #E17A00",
"Q  c #EC7B00",
"!  c #E07E0A",
"~  c #EB770D",
"^  c #E76813",
"/  c #E86E13",
"(  c #EB7F17",
")  c #E97114",
"_  c #83714E",
"`  c #B48000",
"'  c #BE8700",
"]  c #C48C00",
"[  c #C79100",
"{  c #CE9400",
"}  c #D19800",
"|  c #E58400",
" . c #EE8401",
".. c #E78B00",
"X. c #E2830C",
"o. c #EE830E",
"O. c #E98A0D",
"+. c #F08C01",
"@. c #EA9200",
"#. c #ED9D00",
"$. c #EB920E",
"%. c #F29401",
"&. c #F59B01",
"*. c #F49A08",
"=. c #ED861E",
"-. c #F39D1E",
";. c #DDA200",
":. c #E6A900",
">. c #ECAD00",
",. c #EDAE0F",
"<. c #F6A200",
"1. c #F8A501",
"2. c #F6A900",
"3. c #FAAC00",
"4. c #F6A008",
"5. c #FAAF0D",
"6. c #F6B600",
"7. c #FCB400",
"8. c #FFBB01",
"9. c #FFBD0B",
"0. c #F8B40B",
"q. c #F5A810",
"w. c #F9AC13",
"e. c #F4A01B",
"r. c #FBB313",
"t. c #FFBE13",
"y. c #FBB61F",
"u. c #FEBD19",
"i. c #F29B22",
"p. c #F5A524",
"a. c #F6A923",
"s. c #F8B227",
"d. c #FBB924",
"f. c #F8B228",
"g. c #FBBE2B",
"h. c #FFC300",
"j. c #FFC900",
"k. c #FFC40A",
"l. c #FFCA0B",
"z. c #FFC315",
"x. c #FFCC15",
"c. c #FFC019",
"v. c #FFC21E",
"b. c #FFC61E",
"n. c #FFC21C",
"m. c #FFC919",
"M. c #FFC91C",
"N. c #FFD01A",
"B. c #FFC222",
"V. c #FFC522",
"C. c #FFC324",
"Z. c #FFC526",
"A. c #FFC324",
"S. c #FFC923",
"D. c #FFC62B",
"F. c #FFC529",
"G. c #FFC72D",
"H. c #FFC72F",
"J. c #FFC52B",
"K. c #FFC82E",
"L. c #FFCA2C",
"P. c #FFD12A",
"I. c #FFCA30",
"U. c #FFD230",
"Y. c #B48F4C",
"T. c #E49451",
"R. c #FACA65",
"E. c #FFD764",
"W. c #F7DE99",
"Q. c #F1D996",
"!. c #FFE392",
"~. c #FFEA9D",
/* pixels */
"                                                                                                                                ",
"                                                                                                                                ",
"                                                                                                                                ",
"                                                                                                                                ",
"                                                          8.8.8.8.8.                                                            ",
"                                                      8.8.h.x.l.j.j.8.8.8.                                                      ",
"                                                8.h.8.h.h.8.F.F.c.v.b.b.k.8.j.8.                                                ",
"                                            8.l.A.B.B.B.A.B.C.K.A.u.u.c.9.8.t.m.8.9.                                            ",
"                                        8.8.m.F.F.t.k.9.9.k.9.t.C.z.h.8.8.8.h.v.K.L.t.                                          ",
"                                    8.8.h.C.K.H.F.9.+.3.h.%.<.h.8.+.%.8.8.1.Q 3.b.v.z.j.8.                                      ",
"                                  8.j.8.v.H.F.H.S.7.6 &.8.S l 7.+.6 6 %.8.x 6 F 3.7.8.8.M.k.                                    ",
"                                8.j.t.c.F.L.K.A.y.8.z 1.3.z 7 z u l 6 T %.6 z 6 F 3.8.C.H.9.8.                                  ",
"                                j.8.t.b.e.=.u.<.S  .k E h.Y 6 7 u k k t 6 k k 7 D 7.8.A.K.9.h.8.                                ",
"                              h.c.F.C.8.&.6 D S 6 6 u 7 A j 6 C d 8 s s s k u k 6 D D ) F.9.8.k.9.                              ",
"                            8.8.v.I.H.k.E 6 q q l l k k 5 2 V 8.@.2 i 0 s k k u l 6 S +.h.8.8.F.P.8.                            ",
"                          8.h.8.9.v.J.4.<.u k k u k k s w h 3.8.h.| 2 a k k s k l 6 +.8.E +.c.H.v.j.8.                          ",
"                        8.j.8.8.8.j.o.G 8.x 7 k k k s i 2 <.h.c } h.K 2 f k k k k q x D 6 E A.H.t.8.j.                          ",
"                        9.v.t.8.1.1. .6 E x q k s w 0 i 2 2.h.& ] j.L 2 i w e e e k y 6 z 7.A.K.t.8.h.8.                        ",
"                      8.x.I.B.j. .6 G 7 6 u k k w 9 0 0 2 q.9.= ] j.L 2 i 9 9 w k w a u 6 3.A.H.t.8.8.8.                        ",
"                      8.t.I.d.7.&.6 7 k k k w 0 e 0 i 2 P h.] X > 6.3.p 8 0 9 e k w w z U 7.9.9.8.8.9.j.8.                      ",
"                      h.9.S.i.6 3.U 6 k k w 9 0 k e p 2 W E.Y.. ; 6.7.i 8 9 w k e a 6 G h.8.8.8.8.8.t.h.8.                      ",
"                    8.h.8.M.p.6 F  .q k s 0 w s k k g 2 T.~.Q.< @ 0.7.h 8 a s s e a q x Y  .8.8.8.8.t.8.j.                      ",
"                    j.A.A.d.9.Q 6 x k u e e k k k k 7 B r.!.W.1 . M j...2 i 0 w s u k u 6 7 S 1.8.8.t.8.8.8.                    ",
"                  t.S.v.h.T %.h.%.S 7 k k k k k w a 5 B 8.R._ . X b j.@.2 i w k k k k k l u 6 &.8.9.t.8.8.8.                    ",
"                  b.v.8.8.Q k T E x q k e s k k e i 2 B 9.:.. * . b j.@.2 d k k k k k k u k G 8.9.F.F.c.8.j.8.                  ",
"                  v.A.8.z T x 6 6 q k k w w k k k k 6 N 8.,.# $ . b j.@.2 a k u s k e f 6 T 8.8.k.K.K.K.A.j.8.                  ",
"                  b.F.8.&.+.k 6 q k u s w 0 s k k k 5 N 8.>.O $ . b j.@.2 i s k k s 0 a 6 T j.3. .c.c.v.t.8.8.                  ",
"                8.k.9.7.3.7.7.Q x u k 0 9 w k k k a 2 B 8.>.O $ . b j.@.2 i w s s s 9 i 6 T 7.D 6 F 1.8.8.8.j.                  ",
"                8.j.8.&.E G %.<.E 6 k w w e k k e i 2 B 8.>.O $ . b j.@.2 i 9 0 9 e e a 6 Q  .6 z 6 F 8.8.8.h.                  ",
"                8.8.8.8.j.Q 6 6 6 k u k k u e k e i 2 B 8.>.O $ . b j.@.2 i 0 0 e s k k 7 D F 7 k q %.8.8.8.h.8.                ",
"                j.8.9.8.8.T 7 z k k k k k k k k e i 2 B 8.>.O $ . b j.@.2 i 9 0 k k k u k 7 7 k k 6 5.F.9.8.h.8.                ",
"                j.t.A.3.E 6 6 6 k k k k k k k k e i 2 B 8.>.O $ . b j.@.2 i 9 e k s k k u k k k 7 F 0.K.9.8.h.8.                ",
"                l.F.S.Q S <.<.+.k u k k k k k k k a 2 B 8.>.O $ . b j.@.2 i 0 e k k k k k s k l 6 +.S.H.A.t.h.8.                ",
"                P.v.8.7.7.h.%.S k k k k k k k k k a 2 B 8.>.O $ . b j.@.2 i e s k k k w w w k l 6 E S.F.B.8.h.8.                ",
"                j.8.8.8.h.7.k 6 k k k k k k k k e a 2 B 8.>.O $ . b j.@.2 i w k k k e 0 9 0 s k k u Q 3.8.8.h.8.                ",
"                8.h.b.*.T Q l k k k k s s s s k e a 5 N 8.>.O $ . b j.@.2 i 0 e s k e e e w e k q 6 6 +.h.8.h.                  ",
"                8.x.A.C.5.+.z q k k s 0 0 9 e k s k t B 8.>.O $ . b j.@.2 i 0 0 w k k u k k s u z E 3.8.8.8.h.                  ",
"                8.j.8.b.o.6 k k e e k 0 9 w s k k k t B 8.>.O $ . b j.@.2 i 9 0 s k k k k u l u x +.7.8.8.8.j.                  ",
"                  8.8.B.H y f w 0 e k e e k s w w a 3 B 8.>.O $ . b j.@.2 i 0 w k k k k u k 6 6 k 6 1.h.v.j.8.                  ",
"                  8.c.F.&.6 s s s k k k k k e 9 9 i 2 B 8.>.O $ . b j.@.2 d k s e s k k k 6 T Y 6 ~ r.A.B.j.8.                  ",
"                  t.F.9.7.+.z u k k k k s k e 9 9 i 2 B 8.>.+ $ . m 8.K 2 a w 0 0 s e w f 6 T %.&.b.I.C.8.j.8.                  ",
"                  t.l.8.8.8.S q k k k u k k s 0 w s 3 B 8.:.. % . n 7.4 0 i 9 w s k w 9 e l 6 T j.u.H.t.8.8.                    ",
"                    8.8.c.*.6 k k 6 6 k e e k s k k 8 p 2.6., o o [ 7.p 4 0 0 e k s w 9 w k l 6  .8.u.8.h.8.                    ",
"                    8.h.B.f.( 6 7 %.T 6 s w k k k e p 2 P j.] . - 8.7.p 0 i 0 e k e w e s k x %.&.8.8.8.j.                      ",
"                      j.8.z.K.R +.8.x u s 0 w s w 0 p 2 | j.` . % 6.7.! t.X.2 f k w w k k 6 u r.z.8.8.j.8.                      ",
"                      8.h.8.A.v.8. .6 6 s i a w 9 0 i 2 J 8.;.o v 8.@.X.N.O.5 l e w k k k  .D i.z.8.8.h.                        ",
"                      8.j.8.t.K.z.+.D  .q 6 q s 0 0 0 i 2 <.j.: { j.Z I m.w.x q a s t k 6 +.y.H.F.c.8.8.                        ",
"                        8.8.8.B.B.8.3. .6 Y S y s s s i 2 2.8.+ ] j.P 8 $.G l e s q S z 6 ^ L.9.B.F.l.8.                        ",
"                        8.j.8.8.t.9.<.Q %.3.D 6 k k e i 2 ..h.' :.7.V 3 2 2 w k k 6 +.%.6 / K.8.8.8.8.                          ",
"                          8.j.8.8.9.z.h.8.F 6 z e k e 0 0 2 @.j.8.A 3 f a i f 6 T G E h.E p.b.8.8.h.                            ",
"                            8.j.8.v.C.9.7.x E +.6 l s u a 8 0 #.P 2 f k s s k k u %.E 3.9.v.8.8.j.                              ",
"                              8.h.c.B.B.8.3.3.Y 6 q k k w 0 w 5 5 a e 6 k y 6 6 D 7.8.8.8.8.8.j.8.                              ",
"                                8.8.8.B.8.8.9.~ T Q 6 6 E U r z l u l F 7 x a.s.d.A.F.9.8.8.j.8.                                ",
"                                  h.8.B.t.8.v.A.9.9./ 6 &.T 6 6 7 s z 3.E =.U.K.K.H.A.9.8.j.8.                                  ",
"                                    j.8.8.8.8.A.B.F.g.-.h.%.6 +.Y 6 6  .8.w.c.C.J.t.8.8.j.8.                                    ",
"                                      8.8.h.9.t.t.t.9.S.v.8.3.8.7.G G 7.8.8.t.F.9.8.j.8.8.                                      ",
"                                          8.j.8.8.8.8.8.8.8.8.t.A.F.9.8.8.8.B.t.h.8.8.                                          ",
"                                              8.h.j.8.8.8.8.t.H.K.A.9.8.8.h.h.h.8.                                              ",
"                                                8.8.8.j.j.8.9.9.9.9.h.j.h.8.8.                                                  ",
"                                                      8.8.8.j.j.j.j.8.8.                                                        ",
"                                                                                                                                ",
"                                                                                                                                ",
"                                                                                                                                ",
"                                                                                                                                "
};
