/* XPM */
static char *_02317556cc140acc5e63e13fb7c6e1b9IP3xvgdGeK1Aaxq[] = {
/* columns rows colors chars-per-pixel */
"64 64 87 1 ",
"  c #352620",
". c #392A24",
"X c #502C1F",
"o c #462C24",
"O c #4A2E25",
"+ c #4D3026",
"@ c #45312A",
"# c #4D342C",
"$ c #563226",
"% c #5A3326",
"& c #53362B",
"* c #5B362A",
"= c #55382E",
"- c #5B3A2E",
"; c #4B3730",
": c #4E3932",
"> c #543B32",
", c #5C3D32",
"< c #543F38",
"1 c #613729",
"2 c #633B2E",
"3 c #6B3D2E",
"4 c #723F2E",
"5 c #633E32",
"6 c #6A3F31",
"7 c #703F30",
"8 c #5E4036",
"9 c #564038",
"0 c #5D4339",
"q c #71402F",
"w c #78402E",
"e c #644135",
"r c #6C4235",
"t c #644439",
"y c #6C4639",
"u c #6E493C",
"i c #734435",
"p c #7A4635",
"a c #7D4736",
"s c #784837",
"d c #7C4837",
"f c #724638",
"g c #724738",
"h c #744738",
"j c #784738",
"k c #72483A",
"l c #774939",
"z c #744A3C",
"x c #754C3F",
"c c #7A4939",
"v c #7C4A39",
"b c #794B3C",
"n c #7B4C3C",
"m c #7A4C3D",
"M c #7F4D3C",
"N c #734D40",
"B c #7C4F40",
"V c #775042",
"C c #7C5042",
"Z c #804633",
"A c #834834",
"S c #804A37",
"D c #854A37",
"F c #884B37",
"G c #894B37",
"H c #824B38",
"J c #864B38",
"K c #834C3A",
"L c #864D3A",
"P c #814D3C",
"I c #824F3E",
"U c #894E3A",
"Y c #8E4F3A",
"T c #914F39",
"R c #85503E",
"E c #8A503D",
"W c #8C513D",
"Q c #91503B",
"! c #95523B",
"~ c #93523C",
"^ c #99563F",
"/ c #9D563E",
"( c #A45A3F",
") c #835141",
"_ c #875140",
"` c #8B5442",
"' c #A15D46",
/* pixels */
"e55rcMMg51gvcclu8,,r-3Hphchc5gciHdp6vgezze-1YL3F(YDi14Uasirrrrr-",
"g-5rvl-12ghhggmt>>5crhLKh2gy5rivMPlx,eye,,-hLpUQ^r23aYQLdcgrgl$1",
"cgg6vggvPmrhcMl,,e5rrpLspvrlervgvye-ee8#,e,-rvK3*2iwS/^SpRg5r11g",
"shggrrcckrygrr1-le5grraHipcgrbkrgx,ee><=ey=rc5p3*irD!FHdEh$1pig5",
"lgc5rgy5ykeek-6phrr6rpSvgscze5,e>t<>t<,>,,ey-2rX3i3aJaQchi%FDp5h",
"ih6chr5rlrey522iivrgipHvrvlk>,,>&,t:>&=,&ee-15$LLFiSiUQsiaDFYair",
"HppEg*hclrg,-r6pHcig2SLdiclyyee,,,>0#&t=,t,e52H`yaYUaaQPidww!ppD",
"aUHv2vRcblr5err6dc*rhdUhivhlext>>,><##o2,,&&5hPm56aU7Y^vi3ZFT!aY",
"~KiipPgmrrek556Hs6pLPhpphlryuu>,8ee#:+1gc5=5yrgye5pq3WLKri/YTUUD",
"Qp1PPpclr5ykrgglmrcpEhaKhh5ry,y880>+&ervMre5ryryu,3iDvdr1ELppJHi",
"Qdhl,mcr5yey5lg=&r5iPrvhcrry5ky>><#-e5-ggye,y5gtt=2aLH33hpisis3Z",
"Uigbet-5=rre5r6hhc5isvhpMlekuy=:>:@e5+6hg5-yzryee,-6priKaaihdsqF",
"Dpree,,ery5g5$cMlgrhcchgccgB>>,;#<#,rsvsl5rke-rzt,e$rhvraiSpJLpL",
"WsKMre>,=errer55eg5MlhcvMyk,,>,&=,8-55pvccgr,uyety,5hc*sppUSJUhp",
"dKgy55e,>ee-6c5-yer)r5gyere,e,#,,=,,$-vccgeryy#eye-rh6hMr`KpdUh6",
"pPrr,e5=er55-l51lryz5rre5y,=-eey=,,=rhKhr1lz,8>,,e,grck5me,3sPcg",
"g6Mke-,yu,=5le=lMe,eeglyee,ereke&,,,egpicphye>#&=y=,5e=5y-e2pg-v",
"rhly5&eu<>,y5&,kr55ge,ett,,ekre5yeue,elh6grzy>-egy&,y,,e-5--hy1r",
"Khr55ytt@,,=,5-55egil,&0<>,ut,,elxu,,er62igyy,err5,5e-yy-e52hMrh",
"hge,utt,,,,-yye5y-*ihey>@,tt@,eezNt,e56vcLhzt,e-5ye,y,e,-e5ril5c",
"lye>>9==,,#,rrMr-$2ipgy,>>8>,8tt,t>=t,rl5vmut,,1ckeyy,e,er-6Pr1r",
"eee>#>+---1yygr62*aDSPe,,e,88>0><:>,t<=e5mxy,&5lyre,ze-5ke=6Rk-r",
"eu8>,,2griPkr61idiF'Ehyye5u8,,:<::<>8>eeeett#5xlmye,,,,eue,rMrer",
"y>>>,,rr-hbe5rrdHiUKhcmeeee,,>><@>>,,>yt=eu90teezee,,5yy=1y5ge5y",
"t:##,5h5ime,56iaiSpPytt#,erket0;:<>,,t>,,988,,8e8&te,5rrrgrrleet",
"9@#>,y52cme5r1daJWpPry,:<treyt>><:>>,t#,,&,,00,t,8e8,55mgyyt#&>:",
"@@,,=&&2hy1lerHaWJdRye,<09,yt>:0>>>,>>#,ee,ee#&>>8>,,,ey&rm>#,t>",
"#o-5-$2iPrilgrrpaLvcl5,,09,,,0>>:,,#,=&-y5eere,e:>#8,&e,$Mx:,,e&",
"#$rrg6cisvhrgrrdUHdvgue8<;>#=,@@##=$er5-eey5e=k,,8>>,=-*gB,,>,,,",
"-errlhh6hvMrprgvpppgye,e,8<,-$,+---5errgre-,&---re-8,,--heye,,e5",
"yy-5y61iprgivcrhcvcr55e,@,,#=r26c-5--kycr+$$5kglre,g@=,yrke,,55z",
">-5e5rhrdp5rhpphcvPlre,-5,e8,52phiLr5rrg-1iigyre,-,e-reeee>8e,-z",
"--5gygygRlvpcrhhgggryeeegy,eee3JaQH6rgi5-crdEgr5yrerlr,=5>>,55yy",
"2rrrykg5rggrhgsihMyrryy,yeee,rrdLhgphg5lmr5UWll5e-regeu5r55-eyey",
"rrgryyr-5y-rrgyM_bry5ye,,t,,,y&cvhipHigu,-*iKg-rryrrket,-rr55y-1",
"rrcllrr-hg,,5re-5r55ry,=-y,eey$*iPihrhP5&1rphgyyy5r,gry,5r,eg5&*",
"y5igy2c6lre5ererh5ygle-ek,=y,e$pWvipiKRr5rhiLzyrrre5Mrr-ryry#+*r",
",1rg5rg5ry,er5eeehhlr,5yyeut=r5iWrrvvcrg55riPge,kere,525hy5*1pvk",
"=5eg55--kt5reykyrgcr555r5yye,5-Hvgvc3sclr1rccrge5-gr-rPgy5-3UUhr",
"ggrr-5kreyeyekur5ggrg,5ggm=e5e,rhghiphlr&rmy,hc5e5h--rk&5+$4SHp5",
"hvh5rrx5eu5e5rr-5ichh55gze=,5---*irrvmr5rhgeyryyg513rrr5O$ZaYU3a",
"irrykklu5ee,e55ylrvlgrryrry,-5*11lg1rr-hlrvyr&-y5-iidah*33wDWiDF",
"Usyrmyee,555yz,rMrgrgreygree-1pcrr5-rryMbccl5*yre2padPh*s3U^aiS!",
"Uvltt,yk-yyeye,rmr=gylkyry55$gky=&-hMMygry-1rgy=&r6ph5*5hiKhipYT",
"Uply,,e5yyy,eergre5gryee,,yeg5,@@5y)ry,ee5&2i5$5reO*62glr2ShpdDY",
"ppg8,,5yryre,5e$--rlr,=ere0yV,=-5-e,rr51ye-rispl51r631Uh-iQv2iLi",
"Fvgt,,,5eerr52-*vrer5-yuk>@@. +5gye,&-rgg55iHvcm-rrhiDU3dEHaiSa3",
"/Egt#8-yeyey*ridLpip6gy,,=+$1rr1hl,@$-6igcr6vpgr51iddUUWWHcSY^SD",
"^Er==<8,e51grlhKvdirvlr&&&*idgcich-5e5rriphiihhrg3ippWdKivhsWJ4Q",
"Ws5iyte=,erlrrcvc33Svc*213SHvcvggrPy5rrppiiiirrphpdr3UipgchPhiWL",
"ddhcye>8=-yr6ccbgrdLhhiqppavhphrrgRe-ridPEH66hhEpspppUEhrrvg5iKp",
"vPhcr&&,#rr5rrr,5r5rdphppUSSapddpscrrgpLv5criER`bhphUSvr1ihgrr6s",
"lgr21e,,=&-r2hy-5hsUHiLPpHddaSUddKvcyycdLriciglCye6vscrrivMMy1hh",
"yg13pg,55$1r6P55grgMcEghhpHP6ddpdHvlrrrr66irrhkt,,ridcrivvvy5ijr",
"r*iiiihrir56drrcgrg5rk$hhKEpipipLvjcy5rgrhrg6cy,=-6rLhppvvr56grg",
"ryg6paUipii3UMrMyre,5-6hhhyrhSdKKhcr5e5MMgrrhrr=@1hchadhphhmgeer",
"gleihpLippviEcyh-e5-,1gpphgggpSiiihyr55cbr5rhre*$3Hv6DUrsMgu,-5r",
"_xehsddihripSPb16r&e,yrHvPMrgrvPLpc5yerg-er5rgo*vhdipipsKlgg-ryr",
"er5ridhrhdUSH_$yr-ryee2hgvlrrgccisy5y5rryrrre-*pHcKPrsvc16geerky",
"-cggiphlrMyav,ge,,zer,hprPlelcrrrpgcr6r2vrPe+-3aYHcrhvihgRlt,5,5",
"5ggyrcPge55klyy,,r855*cpvM6gcciggiiriK$igive-12aYPhiLiiS6lbr5,ye",
"5ggrrgr$rr-5-,=>,re,yrgiprMlrrrric63Lhr36dhe&2i4SHrpJvpapr5r5yye",
"rlrggr55rr6hryee,5r,e=$6Phlrrrrgchrpshrivg65$hd4/SiiWv3ppWHgymke",
"e5r5ihMl5ggiRgyyer55r$*iphhllgghppvg*Rmghk-33SaZ!FQdS*iLpPlggyry"
};
