/* XPM */
static char *_c09e001fdb2444c913079e697002014UOKWyHTOYCtyajHM[] = {
/* columns rows colors chars-per-pixel */
"64 64 46 1 ",
"  c #0F0E0F",
". c #0E0E11",
"X c #151416",
"o c #161619",
"O c #18171A",
"+ c #1C1A1D",
"@ c #201D1F",
"# c #1E1D21",
"$ c #211F22",
"% c #242225",
"& c #2A2627",
"* c #26252A",
"= c #29272B",
"- c #27282F",
"; c #2C292E",
": c #302C2F",
"> c #272830",
", c #2D2C32",
"< c #2F2F39",
"1 c #312E34",
"2 c #302F38",
"3 c #343136",
"4 c #383337",
"5 c #35333A",
"6 c #3A363C",
"7 c #3D393E",
"8 c #413B3E",
"9 c #363641",
"0 c #393740",
"q c #3D3A42",
"w c #3E3D48",
"e c #423D43",
"r c #413F49",
"t c #464046",
"y c #494246",
"u c #46424A",
"i c #4A454B",
"p c #4E484E",
"a c #514A4E",
"s c #4A4650",
"d c #4E4951",
"f c #534C53",
"g c #584F52",
"h c #575056",
"j c #5A5256",
"k c #5D545A",
/* pixels */
"0q6eet7eyeeew6eq7qttyupiipywtw7;uwqqq675qtyy7756756766yqeqeyte5,",
"6536e657e76526e557577wwuuwqq75,+q67555558q875<33336316735767671+",
"e5366368q55567335677qteyurw7<31+e777757777q56554766313;:5637e63+",
"e536658eq56q66598q77eteiuy95673@e77557777qq7656777551;,8667e773$",
"5567567655777q577577qeiii995tq6%qtttq7e77eq575556333><88667eq73+",
"77555536668q557635577qeytwqetq6#tietqee7qq557577333<>376656877<+",
"e76766665775676576365qqew950763%qq599q3qq77q5563333,34676378q7,+",
"eq5677786756e767765778qq65<575,#06<q75576q535563<>-;34565566773@",
"e77te8eee6677677q57667q9536q73*+75qq77q777556665311331366367883$",
"tqte5eeq65577e6775755353<77633*@77eq57qeq6675586313143367668ee4$",
"qqq06q55576eyeqeq77556535575<5;%q7776eq77253345>,,=1411115546e4#",
"eq005567e767q56677657763533332=%75677e7535,<5553,,1111;,,166871$",
"055q7eyeq5565555555765566233,3;+3<3567<255<34531,11111=:468e661#",
"565qeetq<677e766757556675,3,;3;O,,<353,677,34553111111;48877161+",
"76qqeqq77e67qq3353366663-;,>,,*O-,5352,45325366411311:41146216,+",
"677ee937eq7qq5355348655>>1,,,,%X;34333255565574634111461443466,+",
"67686357e7qee556564832,33,,;;;$o;:55444487677676546686643516661+",
"667657ee88qe753333775333,;;,;*#X;3333357t668778656741343331336:+",
"6676e877tete7653,36553331,*;*%#X;33344487466777753113861,,1363;O",
"6668851687eq3553,333,351;;*%%%$X&:=:334443344663,;,;11>,;=;;11&+",
"3%++@O+++@+++#OOXOXXO+OXXXXXXX X@X O+++++OOOOO+OoOOOOXXX XXOOOXO",
"atyyeq7e7teeq53*53,1333;;-;;&*&;;;&446853236653*1535111,;;;:4868",
"apggfipaippiiw5*55356752,2,,;;;;;:34477tqet7773%7536766331448yya",
"8pjapiaaypitw73+,31351-1;;;;**==*:::47ee7tq665;+52576613,=4488y8",
"aajfhdfdduuwwe3+25155,33,;,;;;===;;:48eeqqtq771@5677653333648tiy",
"pagfhsdduwwwwq,+55133333,,31====*;&44eeeqq7qq7;@7tt65666346388yp",
"ifddssfsdiitq7,+6132354,33431==&;;:88yyyrqttqq5%t8577e7551<6etyt",
"yisuudhhfdduw0,+5233333444543,:::;347ty76tqtyy4&t757t75531488ttt",
"0uiyidiwusw0wq;#6235357884786333:3:348657qqqti6%q56q6775;33468te",
"0tppisdiusuue0-#3253448tt86775454;;5446677tyiy7%w667ttq5333668et",
"tapfffdfkfdu07>+63356888767e65533;:3566537tpiy7#wqqtyw7555778ett",
"ifajhfdkkdduww3+q5548y7777t761,2,-:331,23tyiit5#0qqteq77778e8tyi",
"iffhhdhkhsuwwq3$85667766qeq76211,353;1;18yyite1#q5qye0q777tyqett",
"tddssdkhhssswe3%q6676e7ee6605555333,;1;587eeew,$eqwe0qqe6eyeeeet",
"iidhfhdssssw9q1#30e56eee76q756513,1;;1:536ettq<%wq6qq07eeeeqewee",
"iahsshhhsrs005>#5e8666525qeq563<333;1::348yte01$766qq368ieeeqeet",
"tiiuhhhduswwq01%07656118ee76q633,3,;35347766qq3#qeee56yeiruyeywy",
"tuudhhsssw9weq1#qe06616ee7q6e53313;;:334444675<#67055eeeiyiyyeqe",
"ttiiduuduwwrq03$qe6qe88yeeqee5332,:333;3376533;o55<5q7etyewqqq9t",
"ettiiddsrwq0qq1$eq7eeeeeq7q66<11;3:334;3677,<<*o<-,667eytwq5q75e",
"7qwetiywi055503$eq7e8qqq7655<131333:3134466,>,=O;1416yiee77q856e",
"#%$&=;*:>#$#$*$o,%==%$%%%%$#+$%%++@+++%$%@#Oo+X.%$@$&&:=%*%%%##%",
"13467586<>->;,,,51,>,11;>;;;;;;+&*%=&&=&&;;*%##&=%%&::,,,,;,=;,%",
"ypgfhkkfs0qyeyerieyyruyeqqttet7=776e77765e7511336838yyryryweqq6;",
"e8wtgduu00q7e77e7eeq7765557e75;O5334657553<;;>111:48886eqqqq06,+",
"eeppfyuuu0<we6qqyiq07eq53ty755-+554458tq7313,111116867eeeetqe64$",
"aapfuudswqqe6qqeyyereeq56teqe5;+66687t777233131144447e65qqetee3$",
"aaiswdfuwere6eqqqqqq0eqqtttit73+77eyy777<66533114688eq5e8qetye6%",
"aiuuqpdurrwq5q07eqeqqtqettter73%etyyw675376653;36886q56eeeitew5%",
"iyuwwipuurqq555qteeqetttqtuyq76%yyywqqq7666752,36668766eyyeryy6%",
"yuuuipdwwew978qet778tyiytpiitt5%qewqqqe776676333148888eeeeeeq75%",
"wuiuuuyrwqq7q7tt75tiapaahjaiqq,#57q5qtqee77e753>3768eeeiteeqqe7#",
"eiiweqwq0qq77qpt77taaphhjaduiw2#0qqetwqqq7qq6533667eypieeq57ee5#",
"rytww0eq6qqqqyyq6ttpfdhhfidsiq>#56qtteq7q55755324878eeryeqqw76,#",
"q9qq9qeqqqettpietppiiiddddssr9,#77eywqq7q5qq553,33567eeqtyyq351+",
"eq596wttqwyyyitipapipiuisuuuw6,#q7tteeqq57875<<,13467eqeewe9673#",
"06qqeetw7qtyiiifdpddpiididiiur3$tttttqq65q533<331533577qewq5q51#",
"777qtq7qqtqtiiiiudiiuiiuussfiiq%yyqtqqq05qq65<,;:344677etqqq73,+",
"q77777qq7tiitwyiiuuuuuuuriduuu5$twqq096676533>,34447877tq5qq663+",
"q77q77655qieqiuiuuurdiiuipsruu5$qtqqq55533<33,356458777770q6561+",
"q7t635777w769yiiwqruutwwriwqwq5#tw0qq7573<3313433478e765667665;+",
"t77636657537qet567q60tqqqq0q575&w5667q633433486447486555556663=$",
"2-;-=;;;;31:332>111325313213<1*#3,1;,1,>&:;;:==;;;;;=*=;,;:;==%+",
"%OXOXO+OO+O+OOOOOOO++@@@++@++oX+*+OOOXOOXOXOXOXXOXXXOOOOOOOO++OO"
};
